<svg xmlns="http://www.w3.org/2000/svg" xmlns:xlink="http://www.w3.org/1999/xlink" width="159" height="123" viewBox="0 0 159 123">
    <defs>
        <path id="a" d="M0 0h51.626l-3.88 24.014a1.538 1.538 0 0 1-1.518 1.292H5.398a1.538 1.538 0 0 1-1.518-1.292L0 0z"/>
        <path id="c" d="M0 0h51.626l-3.88 24.014a1.538 1.538 0 0 1-1.518 1.292H5.398a1.538 1.538 0 0 1-1.518-1.292L0 0z"/>
        <path id="e" d="M0 0h81l-6.092 37.98a2.4 2.4 0 0 1-2.37 2.02H8.462a2.4 2.4 0 0 1-2.37-2.02L0 0z"/>
    </defs>
    <g fill="none" fill-rule="evenodd" transform="translate(0 -3)">
        <rect width="159" height="4" y="122" fill="#EEE" rx="2"/>
        <g transform="matrix(-1 0 0 1 147 91)">
            <g transform="translate(3.462 5.694)">
                <mask id="b" fill="#fff">
                    <use xlink:href="#a"/>
                </mask>
                <use fill="#F0F0F0" xlink:href="#a"/>
                <path fill="#F4F4F4" d="M-7.648 0h51.626l-3.88 24.014a1.538 1.538 0 0 1-1.519 1.292H-2.25a1.538 1.538 0 0 1-1.518-1.292L-7.648 0z" mask="url(#b)"/>
            </g>
            <path fill="#F8F8F8" d="M.912.633H57v6.959H.912z"/>
            <path fill="#FAFAFA" d="M25.957 3.847A3.187 3.187 0 0 0 27.124 8.2l26.258 15.16a3.187 3.187 0 1 0 3.187-5.52L30.31 2.68a3.187 3.187 0 0 0-4.354 1.167z"/>
            <ellipse cx="29.275" cy="4.745" fill="#F0F0F0" rx="1" ry="1"/>
        </g>
        <g transform="matrix(-1 0 0 1 77 91)">
            <g transform="translate(3.462 5.694)">
                <mask id="d" fill="#fff">
                    <use xlink:href="#c"/>
                </mask>
                <use fill="#F4F4F4" xlink:href="#c"/>
                <path fill="#F0F0F0" d="M-7.648 0h51.626l-3.88 24.014a1.538 1.538 0 0 1-1.519 1.292H-2.25a1.538 1.538 0 0 1-1.518-1.292L-7.648 0z" mask="url(#d)"/>
            </g>
            <path fill="#F8F8F8" d="M.912.633H57v6.959H.912z"/>
            <path fill="#FAFAFA" d="M25.957 3.847A3.187 3.187 0 0 0 27.124 8.2l26.258 15.16a3.187 3.187 0 1 0 3.187-5.52L30.31 2.68a3.187 3.187 0 0 0-4.354 1.167z"/>
            <ellipse cx="29.275" cy="4.745" fill="#F0F0F0" rx="1" ry="1"/>
        </g>
        <g transform="translate(34 72)">
            <g transform="translate(7 9)">
                <mask id="f" fill="#fff">
                    <use xlink:href="#e"/>
                </mask>
                <use fill="#57ABF2" xlink:href="#e"/>
                <path fill="#67BAFF" d="M-12 0h81l-6.092 37.98a2.4 2.4 0 0 1-2.37 2.02H-3.538a2.4 2.4 0 0 1-2.37-2.02L-12 0z" mask="url(#f)"/>
            </g>
            <path stroke="#606E81" stroke-linecap="round" stroke-linejoin="round" stroke-width="2" d="M7 9h81l-6.092 37.98a2.4 2.4 0 0 1-2.37 2.02H15.462a2.4 2.4 0 0 1-2.37-2.02L7 9z"/>
            <path fill="#E3F2FF" stroke="#606E81" stroke-linecap="round" stroke-linejoin="round" stroke-width="2" d="M3 1h88v11H3z"/>
            <path fill="#4678BC" d="M53.625 6a7.378 7.378 0 0 1-2.63 10.047L12.7 38.697l-1.042-6.444L53.625 6z" opacity=".2"/>
            <path fill="#E3F2FF" stroke="#606E81" stroke-linecap="round" stroke-linejoin="round" stroke-width="2" d="M53.115 4.5a5 5 0 0 1-1.83 6.83l-41.57 24a5 5 0 0 1-5-8.66l41.57-24a5 5 0 0 1 6.83 1.83z"/>
            <circle cx="47.5" cy="7.5" r="1.5" fill="#606E81"/>
        </g>
        <path fill="#89CAFF" d="M79.57 14.57v-2.003a1.5 1.5 0 0 0-1.5-1.497c-.834 0-1.5.67-1.5 1.497v2.003h-2.003a1.5 1.5 0 0 0-1.497 1.5c0 .834.67 1.5 1.497 1.5h2.003v2.003a1.5 1.5 0 0 0 1.5 1.497c.834 0 1.5-.67 1.5-1.497V17.57h2.003a1.5 1.5 0 0 0 1.497-1.5c0-.834-.67-1.5-1.497-1.5H79.57z"/>
        <path fill="#D5D5D5" d="M65.62 30.52v-1.402a1.05 1.05 0 0 0-2.1 0v1.402h-1.402a1.05 1.05 0 0 0 0 2.1h1.402v1.402a1.05 1.05 0 0 0 2.1 0V32.62h1.402a1.05 1.05 0 0 0 0-2.1H65.62z"/>
        <path fill="#FFDEDE" d="M94.97 33.17v-1.202a.894.894 0 0 0-.9-.898c-.5 0-.9.402-.9.898v1.202h-1.202a.894.894 0 0 0-.898.9c0 .5.402.9.898.9h1.202v1.202c0 .504.403.898.9.898.5 0 .9-.402.9-.898V34.97h1.202a.894.894 0 0 0 .898-.9c0-.5-.402-.9-.898-.9H94.97z"/>
        <path fill="#FF9292" d="M54.191 7.033l1.391-1.44a1.5 1.5 0 0 0-.039-2.12c-.6-.58-1.544-.56-2.119.035L52.033 4.95l-1.44-1.391a1.5 1.5 0 0 0-2.12.039c-.58.6-.56 1.544.035 2.119l1.441 1.391-1.391 1.44a1.5 1.5 0 0 0 .039 2.12c.6.58 1.544.56 2.119-.035l1.391-1.441 1.44 1.391a1.5 1.5 0 0 0 2.12-.039c.58-.6.56-1.544-.035-2.119L54.19 7.033z"/>
        <path fill="#C2E2FC" d="M109.62 11.52v-1.402a1.05 1.05 0 0 0-2.1 0v1.402h-1.402a1.05 1.05 0 0 0 0 2.1h1.402v1.402a1.05 1.05 0 0 0 2.1 0V13.62h1.402a1.05 1.05 0 0 0 0-2.1h-1.402z"/>
        <g stroke="#FD8787" stroke-linecap="round" stroke-linejoin="round" stroke-width="2">
            <path d="M24.934 72.518l-4.851-.968M29.084 66.286l-7.272-7.814M35.4 63.897l-.473-5.42"/>
        </g>
    </g>
</svg>
