<svg xmlns="http://www.w3.org/2000/svg" xmlns:xlink="http://www.w3.org/1999/xlink" width="131" height="131" viewBox="0 0 131 131">
    <defs>
        <rect id="a" width="41.435" height="32.285" x=".862" y=".007" rx="3"/>
        <rect id="c" width="41.435" height="32.285" x=".862" y=".007" rx="3"/>
        <path id="e" d="M7.219 50.73A30.912 30.912 0 0 1 .875 31.937C.875 14.664 15.034.662 32.5.662c17.466 0 31.624 14.002 31.624 31.275 0 7.053-2.36 13.56-6.343 18.793h.121l-25.47 33.186L7.106 50.73h.114z"/>
    </defs>
    <g fill="none" fill-rule="evenodd">
        <g transform="translate(0 -2)">
            <rect width="131" height="4.268" y="128.732" fill="#EEE" rx="2.134"/>
            <path fill="#89CAFF" d="M60.17 11.026V9.6a1.067 1.067 0 0 0-2.135 0v1.425H56.61a1.067 1.067 0 0 0 0 2.134h1.425v1.424a1.067 1.067 0 0 0 2.134 0V13.16h1.425a1.067 1.067 0 0 0 0-2.134h-1.425z"/>
            <path fill="#D5D5D5" d="M50.246 22.371v-.986a.744.744 0 0 0-.747-.757.75.75 0 0 0-.747.757v.986h-.986a.744.744 0 0 0-.756.747.75.75 0 0 0 .756.747h.986v.986c0 .43.335.757.747.757a.75.75 0 0 0 .747-.757v-.986h.987c.43 0 .756-.334.756-.747a.75.75 0 0 0-.756-.747h-.987z"/>
            <path fill="#FFDEDE" d="M71.124 24.256v-.845a.638.638 0 0 0-.64-.649c-.357 0-.64.29-.64.649v.845h-.846a.638.638 0 0 0-.649.64c0 .356.29.64.649.64h.845v.846c0 .368.287.648.64.648.356 0 .64-.29.64-.648v-.845h.846a.638.638 0 0 0 .648-.64c0-.357-.29-.64-.648-.64h-.845z"/>
            <path fill="#FF9292" d="M42.116 5.664l.99-1.025a1.067 1.067 0 0 0-1.535-1.482l-.99 1.025-1.024-.99a1.067 1.067 0 0 0-1.483 1.535l1.025.99-.99 1.025a1.067 1.067 0 0 0 1.535 1.482l.99-1.025 1.025.99a1.067 1.067 0 0 0 1.482-1.535l-1.025-.99z"/>
            <path fill="#C2E2FC" d="M81.545 8.856V7.87a.744.744 0 0 0-.747-.757.75.75 0 0 0-.747.757v.986h-.987a.744.744 0 0 0-.756.747.75.75 0 0 0 .756.747h.987v.986c0 .43.334.757.747.757a.75.75 0 0 0 .747-.757v-.986h.986c.43 0 .756-.335.756-.747a.75.75 0 0 0-.756-.747h-.986z"/>
            <path stroke="#FFF" stroke-linecap="round" stroke-linejoin="round" stroke-width="2" d="M86.438 43.207l3.953 3.953 8.567-8.567"/>
        </g>
        <g transform="translate(-.488 59.503)">
            <mask id="b" fill="#fff">
                <use xlink:href="#a"/>
            </mask>
            <use fill="#EDEDED" xlink:href="#a"/>
            <path fill="#F5F4F4" d="M-.327 3.85l26.036 10.967L48.022 1.44l-8.345-7.11H.297z" mask="url(#b)"/>
        </g>
        <g transform="translate(78.33 95.184)">
            <mask id="d" fill="#fff">
                <use xlink:href="#c"/>
            </mask>
            <use fill="#EDEDED" xlink:href="#c"/>
            <path fill="#F5F4F4" d="M-.327 1.85l26.036 10.967L48.022-.56l-8.345-7.11H.297z" mask="url(#d)"/>
        </g>
        <g transform="translate(33 42)">
            <mask id="f" fill="#fff">
                <use xlink:href="#e"/>
            </mask>
            <g stroke-linecap="round" stroke-linejoin="round">
                <use fill="#3EC76F" xlink:href="#e"/>
                <path stroke="#606E81" stroke-width="2" d="M5.276 49.73a31.883 31.883 0 0 1-5.4-17.793C-.125 14.11 14.483-.338 32.498-.338c18.016 0 32.624 14.448 32.624 32.275a31.883 31.883 0 0 1-5.4 17.793h.206L32.43 85.56 5.085 49.73h.192z"/>
            </g>
            <path fill="#51D881" d="M4.219 47.73a30.912 30.912 0 0 1-6.344-18.793c0-17.273 14.159-31.275 31.624-31.275 17.466 0 31.624 14.002 31.624 31.275 0 7.053-2.36 13.56-6.343 18.793h.121l-25.47 33.186L4.106 47.73h.114z" mask="url(#f)"/>
        </g>
    </g>
</svg>
