<svg xmlns="http://www.w3.org/2000/svg" width="173" height="177" viewBox="0 0 173 177">
    <g fill="none" fill-rule="evenodd">
        <g transform="translate(0 -1)">
            <g transform="translate(48)">
                <path fill="#D5D5D5" d="M17.55 33.45v-1.402a1.05 1.05 0 0 0-2.1 0v1.402h-1.402a1.05 1.05 0 0 0 0 2.1h1.402v1.402a1.05 1.05 0 0 0 2.1 0V35.55h1.402a1.05 1.05 0 0 0 0-2.1H17.55z"/>
                <path fill="#FFDEDE" d="M46.9 36.1v-1.202A.894.894 0 0 0 46 34c-.5 0-.9.402-.9.898V36.1h-1.202A.894.894 0 0 0 43 37c0 .5.402.9.898.9H45.1v1.202c0 .504.403.898.9.898.5 0 .9-.402.9-.898V37.9h1.202A.894.894 0 0 0 49 37c0-.5-.402-.9-.898-.9H46.9z"/>
                <path fill="#51D881" d="M7.526 7.474l2.003-.035a1.5 1.5 0 0 0 1.47-1.526 1.495 1.495 0 0 0-1.523-1.474l-2.002.035-.035-2.003a1.5 1.5 0 0 0-1.526-1.47 1.495 1.495 0 0 0-1.474 1.523l.035 2.002-2.003.035a1.5 1.5 0 0 0-1.47 1.526 1.495 1.495 0 0 0 1.523 1.474l2.002-.035.035 2.003a1.5 1.5 0 0 0 1.526 1.47 1.495 1.495 0 0 0 1.474-1.523l-.035-2.002z"/>
                <path fill="#FF9292" d="M66.55 14.45v-1.402a1.05 1.05 0 0 0-2.1 0v1.402h-1.402a1.05 1.05 0 0 0 0 2.1h1.402v1.402a1.05 1.05 0 0 0 2.1 0V16.55h1.402a1.05 1.05 0 0 0 0-2.1H66.55z"/>
                <circle cx="32" cy="18" r="2" stroke="#89CAFF" stroke-width="2"/>
            </g>
            <rect width="173" height="4" y="174" fill="#EEE" rx="2"/>
        </g>
        <g stroke="#FD8787" stroke-linecap="round" stroke-linejoin="round" stroke-width="2">
            <path d="M39.934 64.518l-4.851-.968M44.084 58.286l-7.272-7.814M50.4 55.897l-.473-5.42"/>
        </g>
        <g transform="translate(20 127)">
            <circle cx="14.871" cy="14.871" r="14.871" fill="#FF9292" stroke="#606E81" stroke-width="2"/>
            <circle cx="8.685" cy="13.317" r="1.737" fill="#606E81"/>
            <circle cx="21.423" cy="13.317" r="1.737" fill="#606E81"/>
            <path stroke="#606E81" stroke-linecap="round" stroke-linejoin="round" stroke-width="2" d="M10.618 22.87c.926-2.008 2.476-3.013 4.65-3.013 2.173 0 3.722 1.005 4.648 3.014"/>
        </g>
        <g transform="translate(121 126)">
            <circle cx="14.871" cy="14.871" r="14.871" fill="#56AAEF" stroke="#606E81" stroke-width="2"/>
            <circle cx="8.685" cy="13.317" r="1.737" fill="#606E81"/>
            <circle cx="21.423" cy="13.317" r="1.737" fill="#606E81"/>
            <path stroke="#606E81" stroke-linecap="round" stroke-linejoin="round" stroke-width="2" d="M10.618 21h9.298"/>
        </g>
        <g transform="translate(69 119)">
            <circle cx="16.794" cy="16.794" r="16.794" fill="#FFD783" stroke="#606E81" stroke-width="2"/>
            <circle cx="9.808" cy="15.038" r="1.962" fill="#606E81"/>
            <circle cx="24.192" cy="15.038" r="1.962" fill="#606E81"/>
            <path stroke="#606E81" stroke-linecap="round" stroke-linejoin="round" stroke-width="2" d="M11.991 22.424c1.046 2.269 2.796 3.403 5.25 3.403s4.204-1.134 5.25-3.403"/>
        </g>
        <g transform="translate(21 81)">
            <rect width="47" height="33" fill="#FFF" rx="2"/>
            <g fill="#EDEDED" transform="translate(10 8)">
                <rect width="20" height="2" y="16" rx="1"/>
                <rect width="20" height="2" y="8" rx="1"/>
                <rect width="10" height="2" rx="1"/>
            </g>
        </g>
        <g transform="matrix(-1 0 0 1 154 57)">
            <rect width="47" height="33" fill="#FFF" rx="2"/>
            <g fill="#EDEDED" transform="translate(16 8)">
                <rect width="20" height="2" y="16" rx="1"/>
                <rect width="20" height="2" y="8" rx="1"/>
                <rect width="10" height="2" x="10" rx="1"/>
            </g>
        </g>
        <g transform="translate(49 65)">
            <path fill="#FFF" stroke="#606E81" stroke-linecap="round" stroke-linejoin="round" stroke-width="2" d="M40.797 41H71a3 3 0 0 0 3-3V3a3 3 0 0 0-3-3H3a3 3 0 0 0-3 3v35a3 3 0 0 0 3 3h30.29l3.754 5.161L40.797 41z"/>
            <path fill="#D8D8D8" d="M17 17c0-.552.45-1 1.009-1H55.99c.557 0 1.009.444 1.009 1 0 .552-.45 1-1.009 1H18.01A1.002 1.002 0 0 1 17 17z"/>
            <rect width="31" height="2" x="22" y="24" fill="#D8D8D8" rx="1"/>
        </g>
    </g>
</svg>
