<svg xmlns="http://www.w3.org/2000/svg" width="173" height="177" viewBox="0 0 173 177">
    <g fill="none" fill-rule="evenodd">
        <g transform="translate(0 -1)">
            <g transform="translate(48)">
                <path fill="#D5D5D5" d="M17.55 33.45v-1.402a1.05 1.05 0 0 0-2.1 0v1.402h-1.402a1.05 1.05 0 0 0 0 2.1h1.402v1.402a1.05 1.05 0 0 0 2.1 0V35.55h1.402a1.05 1.05 0 0 0 0-2.1H17.55z"/>
                <path fill="#FFDEDE" d="M46.9 36.1v-1.202A.894.894 0 0 0 46 34c-.5 0-.9.402-.9.898V36.1h-1.202A.894.894 0 0 0 43 37c0 .5.402.9.898.9H45.1v1.202c0 .504.403.898.9.898.5 0 .9-.402.9-.898V37.9h1.202A.894.894 0 0 0 49 37c0-.5-.402-.9-.898-.9H46.9z"/>
                <path fill="#51D881" d="M7.526 7.474l2.003-.035a1.5 1.5 0 0 0 1.47-1.526 1.495 1.495 0 0 0-1.523-1.474l-2.002.035-.035-2.003a1.5 1.5 0 0 0-1.526-1.47 1.495 1.495 0 0 0-1.474 1.523l.035 2.002-2.003.035a1.5 1.5 0 0 0-1.47 1.526 1.495 1.495 0 0 0 1.523 1.474l2.002-.035.035 2.003a1.5 1.5 0 0 0 1.526 1.47 1.495 1.495 0 0 0 1.474-1.523l-.035-2.002z"/>
                <path fill="#FF9292" d="M66.55 14.45v-1.402a1.05 1.05 0 0 0-2.1 0v1.402h-1.402a1.05 1.05 0 0 0 0 2.1h1.402v1.402a1.05 1.05 0 0 0 2.1 0V16.55h1.402a1.05 1.05 0 0 0 0-2.1H66.55z"/>
                <circle cx="32" cy="18" r="2" stroke="#89CAFF" stroke-width="2"/>
            </g>
            <rect width="173" height="4" y="174" fill="#EEE" rx="2"/>
        </g>
        <g transform="translate(11 115)">
            <rect width="73.056" height="39.694" fill="#F4F4F4" rx="2"/>
            <g fill="#E0E0E0" transform="translate(8 10)">
                <rect width="20" height="2" y="16" rx="1"/>
                <rect width="20" height="2" y="8" rx="1"/>
                <rect width="10" height="2" rx="1"/>
            </g>
        </g>
        <g transform="matrix(-1 0 0 1 162 135)">
            <rect width="73.056" height="39.694" fill="#F4F4F4" rx="2"/>
            <g fill="#E0E0E0" transform="translate(8 10)">
                <rect width="20" height="2" y="16" rx="1"/>
                <rect width="20" height="2" y="8" rx="1"/>
                <rect width="10" height="2" x="10" rx="1"/>
            </g>
        </g>
        <path fill="#D8EAFF" d="M50.603 83h71.932v89.299H50.603z"/>
        <path stroke="#606E81" stroke-linecap="round" stroke-linejoin="round" stroke-width="2" d="M50.603 83h71.932v89.299H50.603z"/>
        <path fill="#606E81" fill-opacity=".1" d="M49.636 100H104a3 3 0 0 1 3 3v21a3 3 0 0 1-3 3H49.636v-27zM123 138H68.636a3 3 0 0 0-3 3v21a3 3 0 0 0 3 3H123v-27z"/>
        <g stroke="#FD8787" stroke-linecap="round" stroke-linejoin="round" stroke-width="2">
            <path d="M40.934 79.518l-4.851-.968M45.084 73.286l-7.272-7.814M51.4 70.897l-.473-5.42"/>
        </g>
        <g stroke-width="2" transform="translate(37 94)">
            <path fill="#FFF" stroke="#606E81" stroke-linecap="round" stroke-linejoin="round" d="M5.865 28L.026 32.945V28H0V2a2 2 0 0 1 2-2h61a2 2 0 0 1 2 2v24a2 2 0 0 1-2 2H5.865z"/>
            <circle cx="13" cy="14" r="6" fill="#67BAFF" stroke="#606E81"/>
            <path stroke="#D8D8D8" stroke-linecap="round" stroke-linejoin="round" d="M26.033 11.456h31.399M26.033 17.456h21.399"/>
        </g>
        <g stroke-width="2" transform="matrix(-1 0 0 1 136 132)">
            <path fill="#67BAFF" stroke="#606E81" stroke-linecap="round" stroke-linejoin="round" d="M5.865 28L.026 32.945V28H0V2a2 2 0 0 1 2-2h61a2 2 0 0 1 2 2v24a2 2 0 0 1-2 2H5.865z"/>
            <circle cx="13" cy="14" r="6" fill="#FFF" stroke="#606E81"/>
            <path stroke="#FFF" stroke-linecap="round" stroke-linejoin="round" d="M26.033 11.456h31.399M26.033 17.456h21.399"/>
        </g>
    </g>
</svg>
