<svg xmlns="http://www.w3.org/2000/svg" xmlns:xlink="http://www.w3.org/1999/xlink" width="204" height="150" viewBox="0 0 204 150">
    <defs>
        <path id="a" d="M36.286.506h98.4a6 6 0 0 1 6 6V82.85a6 6 0 0 1-6 6h-98.4a6 6 0 0 1-6-6V6.506a6 6 0 0 1 6-6z"/>
        <path id="b" d="M50.847.506h83.839a6 6 0 0 1 6 6V82.85a6 6 0 0 1-6 6H50.847V.506z"/>
    </defs>
    <g fill="none" fill-rule="evenodd">
        <g transform="translate(6.846 87.527)">
            <rect width="30.87" height="2" x="10.996" y="51.527" fill="#606E81" rx="1"/>
            <rect width="30.87" height="3.632" x=".364" y="40.632" fill="#EEE" rx="1.816"/>
            <rect width="18.159" height="3.632" x="1.364" y=".683" fill="#EEE" rx="1.816"/>
            <rect width="30.87" height="2" x="16.338" y="11.578" fill="#606E81" rx="1"/>
            <rect width="9.079" height="2" x="1.811" y="11.578" fill="#606E81" rx="1"/>
            <rect width="7.263" height="2" x=".1" y="51.527" fill="#606E81" rx="1"/>
        </g>
        <path fill="#EAEFF4" d="M145.364 98.284h46.257a6 6 0 0 1 6 6v34.62a6 6 0 0 1-6 6h-46.257a6 6 0 0 1-6-6v-34.62a6 6 0 0 1 6-6z"/>
        <path fill="#FAFAFA" d="M150.214 88.284h41.407a6 6 0 0 1 6 6v44.62a6 6 0 0 1-6 6h-41.407v-56.62z"/>
        <path fill="#EDEDED" d="M157.578 117.85c0-.893.732-1.618 1.62-1.618h31.807c.895 0 1.62.718 1.62 1.619 0 .894-.732 1.619-1.62 1.619h-31.807c-.894 0-1.62-.719-1.62-1.62zM157.578 129.85c0-.893.732-1.618 1.62-1.618h31.807c.895 0 1.62.718 1.62 1.619 0 .894-.732 1.619-1.62 1.619h-31.807c-.894 0-1.62-.719-1.62-1.62zM157.578 105.85c0-.893.732-1.618 1.62-1.618h31.807c.895 0 1.62.718 1.62 1.619 0 .894-.732 1.619-1.62 1.619h-31.807c-.894 0-1.62-.719-1.62-1.62z"/>
        <g transform="translate(17 55)">
            <rect width="30.87" height="2" x="1.737" y="62.263" fill="#606E81" rx="1"/>
            <rect width="30.87" height="2" x=".737" y="9.314" fill="#606E81" rx="1"/>
            <use fill="#5EB0F4" xlink:href="#a"/>
            <path stroke="#606E81" stroke-width="2" d="M36.286 1.506a5 5 0 0 0-5 5V82.85a5 5 0 0 0 5 5h98.4a5 5 0 0 0 5-5V6.506a5 5 0 0 0-5-5h-98.4z"/>
            <use fill="#67BAFF" xlink:href="#b"/>
            <path stroke="#606E81" stroke-width="2" d="M51.847 1.506V87.85h82.839a5 5 0 0 0 5-5V6.506a5 5 0 0 0-5-5H51.847z"/>
            <rect width="3" height="17" x="58.2" y="9.3" fill="#FFF" rx="1.5"/>
            <path fill="#61AEEE" d="M125.895 1.972h6.979a6 6 0 0 1 6 6v74.03a5 5 0 0 1-5 5h-7.979V1.972z"/>
            <g fill="#FFF">
                <path d="M93.945 68.878h6.844v18h-6.844z"/>
                <path d="M97.367 62.028l8.158 8.9H89.208z"/>
            </g>
            <path fill="#FFF" d="M85.69 2.458h14v9l-14 3z"/>
        </g>
        <g stroke-width="2" transform="translate(163 13)">
            <circle cx="20" cy="20" r="20" fill="#51D881" stroke="#606E81"/>
            <path stroke="#FFF" stroke-linecap="round" stroke-linejoin="round" d="M12.728 21.845l5.304 5.303 11.492-11.493"/>
        </g>
        <path fill="#89CAFF" d="M109.99 6.223V3.998c0-.918-.745-1.664-1.666-1.664-.927 0-1.667.745-1.667 1.664v2.225h-2.225c-.917 0-1.664.746-1.664 1.667 0 .927.745 1.667 1.664 1.667h2.225v2.225c0 .917.747 1.664 1.667 1.664.927 0 1.667-.745 1.667-1.664V9.557h2.225c.918 0 1.664-.747 1.664-1.667 0-.927-.745-1.667-1.664-1.667h-2.225z"/>
        <path fill="#D5D5D5" d="M84.49 35.946v-1.558a1.166 1.166 0 0 0-2.333 0v1.558h-1.558a1.166 1.166 0 0 0 0 2.334h1.558v1.558a1.166 1.166 0 0 0 2.333 0V38.28h1.558a1.166 1.166 0 0 0 0-2.334H84.49z"/>
        <path fill="#FFDEDE" d="M135.103 34.89v-1.334a1 1 0 0 0-2 0v1.335h-1.336a1 1 0 0 0 0 2h1.336v1.335a1 1 0 0 0 2 0v-1.335h1.335a1 1 0 0 0 0-2h-1.335z"/>
        <path fill="#FF9292" d="M61.79 13.848l1.547-1.6a1.666 1.666 0 0 0-.044-2.355 1.661 1.661 0 0 0-2.354.039l-1.546 1.6-1.601-1.545a1.666 1.666 0 0 0-2.355.043 1.661 1.661 0 0 0 .039 2.354l1.601 1.546-1.546 1.601a1.666 1.666 0 0 0 .043 2.355 1.661 1.661 0 0 0 2.355-.039l1.546-1.6 1.6 1.545c.66.637 1.716.619 2.355-.043a1.661 1.661 0 0 0-.039-2.355l-1.6-1.546z"/>
        <path fill="#C2E2FC" d="M143.382 2.834V1.276a1.166 1.166 0 0 0-2.334 0v1.558h-1.558a1.166 1.166 0 0 0 0 2.334h1.558v1.557a1.166 1.166 0 0 0 2.334 0V5.168h1.557a1.166 1.166 0 0 0 0-2.334h-1.557z"/>
        <rect width="194.826" height="4.306" y="145.694" fill="#EEE" rx="2.153"/>
    </g>
</svg>
