<svg xmlns="http://www.w3.org/2000/svg" xmlns:xlink="http://www.w3.org/1999/xlink" width="196" height="130" viewBox="0 0 196 130">
    <defs>
        <path id="a" d="M61.347 50.91a3.995 3.995 0 0 1 3.994-4.002h32.318a3.998 3.998 0 0 1 3.994 4.003v39.178a3.995 3.995 0 0 1-3.994 4.003H65.341a3.998 3.998 0 0 1-3.994-4.003V50.911z"/>
        <path id="b" d="M.786.568h87v25.62a5 5 0 0 1-5 5h-77a5 5 0 0 1-5-5V.568z"/>
        <path id="c" d="M48.044.568h27.742v25.62a5 5 0 0 1-5 5H.92V.568h29.675"/>
        <path id="d" d="M1.2 0h28a1.2 1.2 0 0 1 1.2 1.2V40H5.2A5.2 5.2 0 0 1 0 34.8V1.2A1.2 1.2 0 0 1 1.2 0z"/>
        <path id="e" d="M1.2 0h37.6A1.2 1.2 0 0 1 40 1.2V53H5.2A5.2 5.2 0 0 1 0 47.8V1.2A1.2 1.2 0 0 1 1.2 0z"/>
        <path id="g" d="M44.132 53C48.044 53 50 49.667 50 43H13.704c0 3.971-2.961 10-6.704 10h37.132z"/>
    </defs>
    <g fill="none" fill-rule="evenodd">
        <rect width="148.905" height="3.291" x="19.547" y="126.169" fill="#EEE" rx="1.645"/>
        <g transform="translate(.5)">
            <use fill="#FFF" xlink:href="#a"/>
            <path stroke="#606E81" stroke-width="2" d="M62.347 50.91v39.18a2.998 2.998 0 0 0 2.994 3.002h32.318a2.995 2.995 0 0 0 2.994-3.003V50.911a2.998 2.998 0 0 0-2.994-3.003H65.341a2.995 2.995 0 0 0-2.994 3.003z"/>
            <path fill="#F4F5F6" d="M103 56h4v50h-4zM95.689 49.826h2a2 2 0 0 1 2 2v49.482h-4V49.826z"/>
            <path fill="#D8D8D8" d="M70.5 56.7h13.478a.8.8 0 1 1 0 1.6H70.5a.8.8 0 0 1 0-1.6zM70.5 64.7h14.778a.8.8 0 1 1 0 1.6H70.5a.8.8 0 0 1 0-1.6zM70.5 73.7h19.977a.8.8 0 1 1 0 1.6H70.5a.8.8 0 0 1 0-1.6zM70.5 80.7h19.977a.8.8 0 1 1 0 1.6H70.5a.8.8 0 0 1 0-1.6z"/>
            <g transform="translate(36.7 82.3)">
                <use fill="#3AC46B" xlink:href="#b"/>
                <path stroke="#606E81" stroke-width="2" d="M1.786 1.568v24.62a4 4 0 0 0 4 4h77a4 4 0 0 0 4-4V1.568h-85z"/>
            </g>
            <g transform="translate(48.7 82.3)">
                <use fill="#51D881" xlink:href="#c"/>
                <path stroke="#606E81" stroke-width="2" d="M1.92 1.568v28.62h68.866a4 4 0 0 0 4-4V1.568H1.92z"/>
                <rect width="2" height="17" x="9" y="7" fill="#FFF" rx="1"/>
                <path fill="#43CF75" d="M58 2.7h16V26a3 3 0 0 1-3 3H58V2.7z"/>
            </g>
            <path fill="#FFF" stroke="#606E81" stroke-width="2" d="M96.637 82.778v4.707a8.472 8.472 0 0 1-16.944 0v-4.707"/>
            <use fill="#F4F5F6" transform="translate(146.3 73.3)" xlink:href="#d"/>
            <path fill="#51D881" d="M35.5 61h2v20h-2z"/>
            <text fill="#51D881" font-family="HelveticaNeue-Medium, Helvetica Neue" font-size="18" font-weight="400" letter-spacing="7.5" transform="translate(30.3 58.3)">
                <tspan x=".2" y="18.7">S</tspan>
            </text>
            <g transform="translate(129.3 60.3)">
                <mask id="f" fill="#fff">
                    <use xlink:href="#e"/>
                </mask>
                <use fill="#FFF" xlink:href="#e"/>
                <path stroke="#606E81" stroke-width="2" d="M39 52V1.2a.2.2 0 0 0-.2-.2H1.2a.2.2 0 0 0-.2.2v46.6A4.2 4.2 0 0 0 5.2 52H39z"/>
                <path fill="#F4F5F6" d="M34 2h4v50h-4z" mask="url(#f)"/>
            </g>
            <path fill="#D8D8D8" d="M138.5 75.3h12.6a1.2 1.2 0 1 1 0 2.4h-12.6a1.2 1.2 0 0 1 0-2.4zM138.3 84.3h14a1 1 0 0 1 0 2h-14a1 1 0 0 1 0-2zM138.3 92.3h20a1 1 0 0 1 0 2h-20a1 1 0 0 1 0-2z"/>
            <g transform="translate(129.3 60.3)">
                <use fill="#F5F2F2" xlink:href="#g"/>
                <path stroke="#606E81" stroke-width="2" d="M48.985 44H14.658c-.265 2.936-1.655 6.043-3.575 8h33.049c3.038 0 4.68-2.51 4.853-8z"/>
            </g>
            <path fill="#89CAFF" d="M55.99 4.223V1.998c0-.918-.745-1.664-1.666-1.664-.927 0-1.667.745-1.667 1.664v2.225h-2.225c-.917 0-1.664.746-1.664 1.667 0 .927.745 1.667 1.664 1.667h2.225v2.225c0 .917.747 1.664 1.667 1.664.927 0 1.667-.745 1.667-1.664V7.557h2.225c.918 0 1.664-.747 1.664-1.667 0-.927-.745-1.667-1.664-1.667h-2.225z"/>
            <path fill="#D5D5D5" d="M100.49 13.946v-1.558a1.166 1.166 0 0 0-2.333 0v1.558h-1.558a1.166 1.166 0 0 0 0 2.334h1.558v1.558a1.166 1.166 0 0 0 2.333 0V16.28h1.558a1.166 1.166 0 0 0 0-2.334h-1.558z"/>
            <path fill="#FFDEDE" d="M161.103 42.89v-1.334a1 1 0 0 0-2 0v1.335h-1.336a1 1 0 0 0 0 2h1.336v1.335a1 1 0 0 0 2 0v-1.335h1.335a1 1 0 0 0 0-2h-1.335z"/>
            <path fill="#FF9292" d="M48.79 43.848l1.547-1.6a1.666 1.666 0 0 0-.044-2.355 1.661 1.661 0 0 0-2.354.039l-1.546 1.6-1.601-1.545a1.666 1.666 0 0 0-2.355.043 1.661 1.661 0 0 0 .039 2.354l1.601 1.546-1.546 1.601a1.666 1.666 0 0 0 .043 2.355 1.661 1.661 0 0 0 2.355-.039l1.546-1.6 1.6 1.545c.66.637 1.716.619 2.355-.043a1.661 1.661 0 0 0-.039-2.355l-1.6-1.546z"/>
            <path fill="#C2E2FC" d="M128.382 30.834v-1.558a1.166 1.166 0 0 0-2.334 0v1.558h-1.558a1.166 1.166 0 0 0 0 2.334h1.558v1.557a1.166 1.166 0 0 0 2.334 0v-1.557h1.557a1.166 1.166 0 0 0 0-2.334h-1.557z"/>
            <rect width="194.826" height="4.306" y="113.694" fill="#EEE" rx="2.153"/>
        </g>
    </g>
</svg>
