<svg xmlns="http://www.w3.org/2000/svg" xmlns:xlink="http://www.w3.org/1999/xlink" width="185" height="163" viewBox="0 0 185 163">
    <defs>
        <path id="a" d="M6.988.76h54.073a6 6 0 0 1 6 6v76.077a6 6 0 0 1-6 6H6.988a6 6 0 0 1-6-6V6.76a6 6 0 0 1 6-6z"/>
        <path id="c" d="M49.776.967h7.919v78.547h-7.919z"/>
        <path id="d" d="M6.645 77.617h51.064a10 10 0 0 0 6.162-2.124l3.07-2.402v9.838a6 6 0 0 1-6 6H6.645a5.656 5.656 0 0 1 0-11.313z"/>
        <circle id="e" cx="18.1" cy="20.363" r="7.207"/>
    </defs>
    <g fill="none" fill-rule="evenodd" transform="translate(.301 .548)">
        <path fill="#FAFAFA" d="M8.068 139.265h45.727a9.557 9.557 0 1 1 0 19.114H8.068a4.5 4.5 0 0 1-4.5-4.5v-10.114a4.5 4.5 0 0 1 4.5-4.5z"/>
        <path stroke="#EDEDED" stroke-linecap="round" stroke-linejoin="round" stroke-width="3" d="M20.221 148.595h40.107"/>
        <path fill="#FAFAFA" d="M113.277 139.265h45.726a9.557 9.557 0 1 1 0 19.114h-45.726a4.5 4.5 0 0 1-4.5-4.5v-10.114a4.5 4.5 0 0 1 4.5-4.5z"/>
        <path stroke="#EDEDED" stroke-linecap="round" stroke-linejoin="round" stroke-width="3" d="M125.43 148.595h40.106"/>
        <path fill="#FAFAFA" d="M90.651 122.296h45.727a9.557 9.557 0 1 1 0 19.114H90.65a4.5 4.5 0 0 1-4.5-4.5v-10.114a4.5 4.5 0 0 1 4.5-4.5z"/>
        <path stroke="#EDEDED" stroke-linecap="round" stroke-linejoin="round" stroke-width="3" d="M102.805 131.626h40.106"/>
        <path fill="#FAFAFA" d="M22.775 122.296H68.5a9.557 9.557 0 1 1 0 19.114H22.775a4.5 4.5 0 0 1-4.5-4.5v-10.114a4.5 4.5 0 0 1 4.5-4.5z"/>
        <path stroke="#EDEDED" stroke-linecap="round" stroke-linejoin="round" stroke-width="3" d="M34.928 131.626h40.106"/>
        <g transform="translate(49.154 66.35)">
            <mask id="b" fill="#fff">
                <use xlink:href="#a"/>
            </mask>
            <use fill="#FAFAFA" xlink:href="#a"/>
            <path stroke="#606E81" stroke-width="2" d="M6.988 1.76a5 5 0 0 0-5 5v76.077a5 5 0 0 0 5 5h54.073a5 5 0 0 0 5-5V6.76a5 5 0 0 0-5-5H6.988z"/>
            <path fill="#F4F5F6" d="M9.05 3.394v74.664c-.65-.24-2.583.138-5.8 1.131V8.171a4.867 4.867 0 0 1 5.8-4.777z" mask="url(#b)"/>
            <use fill="#FD8787" xlink:href="#c"/>
            <path stroke="#606E81" stroke-width="2" d="M50.776 1.967h5.919v76.547h-5.919z"/>
            <use fill="#FAFAFA" xlink:href="#d"/>
            <path stroke="#606E81" stroke-width="2" d="M65.94 75.143l-1.453 1.138a11 11 0 0 1-6.778 2.336H6.645a4.656 4.656 0 1 0 0 9.312H60.94a5 5 0 0 0 5-5v-7.786z"/>
            <g>
                <use fill="#FD8787" xlink:href="#e"/>
                <circle cx="18.1" cy="20.363" r="6.207" stroke="#606E81" stroke-width="2"/>
            </g>
            <rect width="29.953" height="1.811" x="12.441" y="38.266" fill="#D8D8D8" rx=".906"/>
            <rect width="29.953" height="1.811" x="12.441" y="50.872" fill="#D8D8D8" rx=".906"/>
            <path stroke="#606E81" stroke-linecap="round" stroke-linejoin="round" stroke-width="2" d="M23.124 82.892H58.74a8 8 0 0 0 4.414-1.328l3.123-2.066"/>
        </g>
        <rect width="184.285" height="4.073" x=".057" y="158.096" fill="#EEE" rx="2.036"/>
        <path fill="#89CAFF" d="M86.265 48.122l.438-2.48c.18-1.021-.505-2-1.53-2.18a1.88 1.88 0 0 0-2.184 1.526l-.437 2.48-2.48-.438c-1.022-.18-2 .505-2.18 1.53a1.88 1.88 0 0 0 1.525 2.184l2.48.437-.437 2.48c-.18 1.021.504 2 1.53 2.18a1.88 1.88 0 0 0 2.183-1.526l.438-2.48 2.479.438c1.022.18 2-.505 2.18-1.53a1.88 1.88 0 0 0-1.525-2.184l-2.48-.437zM24.888 85.133v-2.517a1.885 1.885 0 0 0-1.886-1.882 1.88 1.88 0 0 0-1.885 1.882v2.517h-2.518a1.885 1.885 0 0 0-1.882 1.886 1.88 1.88 0 0 0 1.882 1.886h2.518v2.517c0 1.038.844 1.882 1.885 1.882a1.88 1.88 0 0 0 1.886-1.882v-2.517h2.518a1.885 1.885 0 0 0 1.882-1.886 1.88 1.88 0 0 0-1.882-1.886h-2.518z"/>
        <path fill="#D5D5D5" d="M41.29 39.57v-1.763a1.32 1.32 0 0 0-2.64 0v1.762h-1.762a1.32 1.32 0 0 0 0 2.64h1.763v1.762a1.32 1.32 0 0 0 2.64 0V42.21h1.762a1.32 1.32 0 0 0 0-2.64h-1.762z"/>
        <path fill="#FFDEDE" d="M143.799 61v-1.51a1.13 1.13 0 0 0-2.263 0V61h-1.51a1.13 1.13 0 0 0 0 2.263h1.51v1.511a1.13 1.13 0 0 0 2.263 0v-1.51h1.51a1.13 1.13 0 0 0 0-2.263h-1.51z"/>
        <path fill="#FF9292" d="M26.924 14.57l1.749-1.81c.72-.747.7-1.941-.05-2.664a1.88 1.88 0 0 0-2.663.044l-1.749 1.81-1.81-1.748c-.747-.721-1.941-.7-2.664.049a1.88 1.88 0 0 0 .043 2.663l1.812 1.75-1.75 1.81c-.72.747-.7 1.94.05 2.664a1.88 1.88 0 0 0 2.663-.044l1.75-1.811 1.81 1.749c.747.72 1.94.7 2.664-.05a1.88 1.88 0 0 0-.044-2.663l-1.811-1.749z"/>
        <path fill="#C2E2FC" d="M121.478 19.044v-1.762a1.32 1.32 0 0 0-2.64 0v1.762h-1.762a1.32 1.32 0 0 0 0 2.64h1.762v1.762a1.32 1.32 0 0 0 2.64 0v-1.762h1.762a1.32 1.32 0 0 0 0-2.64h-1.762zM75.106 3.242V1.479a1.32 1.32 0 0 0-2.64 0v1.763h-1.762a1.32 1.32 0 0 0 0 2.64h1.762v1.762a1.32 1.32 0 0 0 2.64 0V5.88h1.762a1.32 1.32 0 0 0 0-2.64h-1.762z"/>
    </g>
</svg>
