<svg xmlns="http://www.w3.org/2000/svg" xmlns:xlink="http://www.w3.org/1999/xlink" width="199" height="150" viewBox="0 0 199 150">
    <defs>
        <path id="a" d="M0 4.006A4 4 0 0 1 3.993 0h57.014A3.994 3.994 0 0 1 65 4.006v67.988A4 4 0 0 1 61.007 76H3.993A3.994 3.994 0 0 1 0 71.994V4.006z"/>
        <path id="b" d="M15.786.568h110v68.62a5 5 0 0 1-5 5h-100a5 5 0 0 1-5-5V.568z"/>
        <path id="c" d="M98.155.624h39.2L124.28 30.623a2 2 0 0 1-1.834 1.2H87.61a2 2 0 0 1-1.834-2.799l12.38-28.4z"/>
        <path id="d" d="M.92.568h74.866v68.62a5 5 0 0 1-5 5H.92V.568z"/>
        <path id="e" d="M14.671.61h38.2L37.64 34.83a3 3 0 0 1-2.741 1.78H3.266a3 3 0 0 1-2.74-4.22L14.67.61z"/>
    </defs>
    <g fill="none" fill-rule="evenodd" transform="translate(-.5)">
        <g transform="translate(.449 97.018)">
            <path fill="#EAEFF4" d="M6.415.267h46.257a6 6 0 0 1 6 6v34.619a6 6 0 0 1-6 6H6.415a6 6 0 0 1-6-6V6.266a6 6 0 0 1 6-6z"/>
            <path fill="#FAFAFA" d="M11.265.267h41.407a6 6 0 0 1 6 6v34.619a6 6 0 0 1-6 6H11.265V.266z"/>
            <rect width="55.047" height="3.238" x="18.629" y="21.214" fill="#EDEDED" rx="1.619"/>
            <rect width="55.047" height="3.238" x="18.629" y="33.214" fill="#EDEDED" rx="1.619"/>
            <rect width="55.047" height="3.238" x="18.629" y="9.214" fill="#EDEDED" rx="1.619"/>
        </g>
        <path fill="#EAEFF4" d="M146.864 97.284h46.257a6 6 0 0 1 6 6v34.62a6 6 0 0 1-6 6h-46.257a6 6 0 0 1-6-6v-34.62a6 6 0 0 1 6-6z"/>
        <path fill="#FAFAFA" d="M151.714 97.284h41.407a6 6 0 0 1 6 6v34.62a6 6 0 0 1-6 6h-41.407v-46.62z"/>
        <path fill="#EDEDED" d="M159.078 119.85c0-.893.732-1.618 1.62-1.618h31.807c.895 0 1.62.718 1.62 1.619 0 .894-.732 1.619-1.62 1.619h-31.807c-.894 0-1.62-.719-1.62-1.62zM159.078 131.85c0-.893.732-1.618 1.62-1.618h31.807c.895 0 1.62.718 1.62 1.619 0 .894-.732 1.619-1.62 1.619h-31.807c-.894 0-1.62-.719-1.62-1.62zM159.078 107.85c0-.893.732-1.618 1.62-1.618h31.807c.895 0 1.62.718 1.62 1.619 0 .894-.732 1.619-1.62 1.619h-31.807c-.894 0-1.62-.719-1.62-1.62z"/>
        <g transform="translate(73 23)">
            <use fill="#FFF" xlink:href="#a"/>
            <path stroke="#606E81" stroke-width="2" d="M1 4.006v67.988A2.994 2.994 0 0 0 3.993 75h57.014A3 3 0 0 0 64 71.994V4.006A2.994 2.994 0 0 0 61.007 1H3.993A3 3 0 0 0 1 4.006z"/>
        </g>
        <path fill="#D8D8D8" d="M87 39h22a1 1 0 0 1 0 2H87a1 1 0 0 1 0-2zM87 51h24a1 1 0 0 1 0 2H87a1 1 0 0 1 0-2zM87 60h33a1 1 0 0 1 0 2H87a1 1 0 0 1 0-2zM87 70h33a1 1 0 0 1 0 2H87a1 1 0 0 1 0-2z"/>
        <g transform="translate(30.7 71.3)">
            <use fill="#5FB2F7" xlink:href="#b"/>
            <path stroke="#606E81" stroke-width="2" d="M16.786 1.568v67.62a4 4 0 0 0 4 4h100a4 4 0 0 0 4-4V1.568h-108z"/>
            <g transform="matrix(-1 0 0 1 224.018 0)">
                <use fill="#63ABE7" xlink:href="#c"/>
                <path stroke="#606E81" stroke-width="2" d="M98.81 1.624l-12.118 27.8a1 1 0 0 0 .917 1.4h34.836a1 1 0 0 0 .917-.6l12.467-28.6H98.81z"/>
            </g>
            <g transform="translate(50)">
                <use fill="#67BAFF" xlink:href="#d"/>
                <path stroke="#606E81" stroke-width="2" d="M1.92 1.568v71.62h68.866a4 4 0 0 0 4-4V1.568H1.92z"/>
                <rect width="3" height="17" x="8" y="10" fill="#FFF" rx="1.5"/>
                <path fill="#61AEEE" d="M66.523 2.67h8l-.033 66.208h-.002a4 4 0 0 1-4 3.998l-4 .002.035-70.208z"/>
            </g>
            <path fill="#FFF" d="M80 2h14v6l-14 3z"/>
            <g fill="#FFF">
                <path d="M85.501 57.545h5.703v15h-5.703z"/>
                <path d="M88.353 51.837l6.799 7.416H81.555z"/>
            </g>
            <rect width="20" height="2" x="96" y="15" fill="#3D98E3" rx="1"/>
            <rect width="20" height="2" x="96" y="23" fill="#3D98E3" rx="1"/>
            <rect width="20" height="2" x="96" y="31" fill="#3D98E3" rx="1"/>
            <path fill="#123959" fill-opacity=".09" d="M15 4.8h39.2L43.083 40.005a4 4 0 0 1-3.815 2.795H8.458a4 4 0 0 1-3.814-5.205L15 4.8z"/>
            <g>
                <use fill="#67BAFF" xlink:href="#e"/>
                <path stroke="#606E81" stroke-width="2" d="M15.32 1.61L1.44 32.797a2 2 0 0 0 1.826 2.813H34.9a2 2 0 0 0 1.827-1.186L51.332 1.61H15.32z"/>
            </g>
        </g>
        <path fill="#89CAFF" d="M107.99 6.223V3.998c0-.918-.745-1.664-1.666-1.664-.927 0-1.667.745-1.667 1.664v2.225h-2.225c-.917 0-1.664.746-1.664 1.667 0 .927.745 1.667 1.664 1.667h2.225v2.225c0 .917.747 1.664 1.667 1.664.927 0 1.667-.745 1.667-1.664V9.557h2.225c.918 0 1.664-.747 1.664-1.667 0-.927-.745-1.667-1.664-1.667h-2.225z"/>
        <path fill="#D5D5D5" d="M62.49 45.946v-1.558a1.166 1.166 0 0 0-2.333 0v1.558h-1.558a1.166 1.166 0 0 0 0 2.334h1.558v1.558a1.166 1.166 0 0 0 2.333 0V48.28h1.558a1.166 1.166 0 0 0 0-2.334H62.49z"/>
        <path fill="#FFDEDE" d="M163.103 24.89v-1.334a1 1 0 0 0-2 0v1.335h-1.336a1 1 0 0 0 0 2h1.336v1.335a1 1 0 0 0 2 0v-1.335h1.335a1 1 0 0 0 0-2h-1.335z"/>
        <path fill="#FF9292" d="M59.79 13.848l1.547-1.6a1.666 1.666 0 0 0-.044-2.355 1.661 1.661 0 0 0-2.354.039l-1.546 1.6-1.601-1.545a1.666 1.666 0 0 0-2.355.043 1.661 1.661 0 0 0 .039 2.354l1.601 1.546-1.546 1.601a1.666 1.666 0 0 0 .043 2.355 1.661 1.661 0 0 0 2.355-.039l1.546-1.6 1.6 1.545c.66.637 1.716.619 2.355-.043a1.661 1.661 0 0 0-.039-2.355l-1.6-1.546z"/>
        <path fill="#C2E2FC" d="M141.382 2.834V1.276a1.166 1.166 0 0 0-2.334 0v1.558h-1.558a1.166 1.166 0 0 0 0 2.334h1.558v1.557a1.166 1.166 0 0 0 2.334 0V5.168h1.557a1.166 1.166 0 0 0 0-2.334h-1.557z"/>
        <rect width="194.826" height="4.306" x="2" y="145.694" fill="#EEE" rx="2.153"/>
    </g>
</svg>
