<svg xmlns="http://www.w3.org/2000/svg" xmlns:xlink="http://www.w3.org/1999/xlink" width="205" height="182" viewBox="0 0 205 182">
    <defs>
        <path id="a" d="M108.649 127h17.7v50h-17.7z"/>
        <path id="b" d="M1 .225h74c11.598 0 21 9.402 21 21v44a5 5 0 0 1-5 5H0l1-70z"/>
        <path id="d" d="M81 66.275c11.075 0 20.054 8.978 20.054 20.054v44.846a5 5 0 0 1-5 5H65.946a5 5 0 0 1-5-5V86.33c0-11.076 8.979-20.054 20.054-20.054z"/>
    </defs>
    <g fill="none" fill-rule="evenodd">
        <g transform="translate(140.066 85.95)">
            <path fill="#FAFAFA" d="M2.333 0h56.656a2.333 2.333 0 0 1 2.333 2.333V87.48a2.333 2.333 0 0 1-2.333 2.333H2.333A2.333 2.333 0 0 1 0 87.48V2.333A2.333 2.333 0 0 1 2.333 0z"/>
            <rect width="20.995" height="3.499" x="16.33" y="13.997" fill="#EDEDED" rx="1.75"/>
            <rect width="20.995" height="3.499" x="16.33" y="29.16" fill="#EDEDED" rx="1.75"/>
            <rect width="20.995" height="3.499" x="16.33" y="38.491" fill="#EDEDED" rx="1.75"/>
            <rect width="20.995" height="3.499" x="16.33" y="47.822" fill="#EDEDED" rx="1.75"/>
            <rect width="11.664" height="3.499" x="16.33" y="72.317" fill="#EDEDED" rx="1.75"/>
        </g>
        <use fill="#AC8FEC" xlink:href="#a"/>
        <path stroke="#606E81" stroke-width="2" d="M109.649 128v48h15.7v-48h-15.7z"/>
        <rect width="204.066" height="6.648" x=".467" y="174.442" fill="#EEE" rx="3"/>
        <g transform="translate(30.066 85.95)">
            <path fill="#FAFAFA" d="M2.333 0h56.656a2.333 2.333 0 0 1 2.333 2.333V87.48a2.333 2.333 0 0 1-2.333 2.333H2.333A2.333 2.333 0 0 1 0 87.48V2.333A2.333 2.333 0 0 1 2.333 0z"/>
            <rect width="20.995" height="3.499" x="16.33" y="13.997" fill="#EDEDED" rx="1.75"/>
            <rect width="20.995" height="3.499" x="16.33" y="29.16" fill="#EDEDED" rx="1.75"/>
            <rect width="20.995" height="3.499" x="16.33" y="38.491" fill="#EDEDED" rx="1.75"/>
            <rect width="20.995" height="3.499" x="16.33" y="47.822" fill="#EDEDED" rx="1.75"/>
            <rect width="11.664" height="3.499" x="16.33" y="72.317" fill="#EDEDED" rx="1.75"/>
        </g>
        <g transform="translate(75 66)">
            <mask id="c" fill="#fff">
                <use xlink:href="#b"/>
            </mask>
            <use fill="#B18DFF" xlink:href="#b"/>
            <path stroke="#606E81" stroke-width="2" d="M1.986 1.225l-.972 68H91a4 4 0 0 0 4-4v-44c0-11.046-8.954-20-20-20H1.986z"/>
            <path fill="#000" d="M-3 33h97v32a4 4 0 0 1-4 4H-3V33z" mask="url(#c)" opacity=".08"/>
        </g>
        <path fill="#51D881" stroke="#606E81" stroke-width="1.56" d="M12.309 73.128l26.08-3.585L22.922 85.09z"/>
        <path fill="#4DBF76" d="M15.68 76.747l-.27 7.275 3.097-4.01z"/>
        <path fill="#4DBF76" d="M15.68 76.743l10.86-1.968-7.972 5.417z"/>
        <path fill="#47A869" stroke="#606E81" stroke-width="1.56" d="M15.477 83.824l.042-7.15L26.22 74.95l-7.414 5.03z"/>
        <path fill="#51D881" stroke="#606E81" stroke-width="1.56" d="M203.14 67.33l-23.28-12.289 9.214 19.9z"/>
        <path fill="#4DBF76" d="M198.734 69.577l-2.235 6.929-1.539-4.827z"/>
        <path fill="#4DBF76" d="M198.734 69.574l-9.53-5.563 5.637 7.816z"/>
        <path fill="#47A869" stroke="#606E81" stroke-width="1.56" d="M196.504 76.298l2.406-6.733-9.466-5.282 5.246 7.262z"/>
        <rect width="28" height="3" x="132" y="84" fill="#FFF" rx="1.5"/>
        <use fill="#977AD6" xlink:href="#d"/>
        <path stroke="#606E81" stroke-width="2" d="M81 67.275c-10.523 0-19.054 8.53-19.054 19.054v44.846a4 4 0 0 0 4 4h30.108a4 4 0 0 0 4-4V86.33c0-10.523-8.53-19.054-19.054-19.054z"/>
        <rect width="71" height="2" x="27.005" y="134.214" fill="#606E81" rx="1"/>
        <g transform="translate(36.016 98.298)">
            <rect width="54.245" height="33.11" y="1.409" fill="#FFD783" stroke="#606E81" stroke-width="2" rx="4"/>
            <path fill="#F7CC72" d="M43.677 8.38l7.447-4.514c.945-.573 1.712-.144 1.712.967v25.825a2.004 2.004 0 0 1-2.01 2.003h-7.149V8.38z"/>
            <path stroke="#606E81" stroke-linejoin="round" stroke-width="2" d="M1.454 2.92l25.391 15.445 26.1-15.462"/>
            <path stroke="#606E81" stroke-width="2" d="M23.636 16.481L.932 29.661M30.745 15.838L53.449 29.95"/>
        </g>
        <path fill="#89CAFF" d="M16.5 98.437l.386-2.192a1.666 1.666 0 0 0-1.353-1.928 1.661 1.661 0 0 0-1.93 1.35l-.387 2.191-2.191-.386a1.666 1.666 0 0 0-1.928 1.352 1.661 1.661 0 0 0 1.349 1.93l2.192.387-.387 2.192a1.666 1.666 0 0 0 1.353 1.927 1.661 1.661 0 0 0 1.93-1.348l.386-2.192 2.192.386a1.666 1.666 0 0 0 1.928-1.352 1.661 1.661 0 0 0-1.349-1.93l-2.192-.387zM101 4.254V2.03c0-.917-.746-1.664-1.667-1.664-.927 0-1.667.745-1.667 1.664v2.225h-2.225c-.917 0-1.664.747-1.664 1.667 0 .927.745 1.667 1.664 1.667h2.225v2.225c0 .918.747 1.664 1.667 1.664.927 0 1.667-.745 1.667-1.664V7.588h2.226c.917 0 1.663-.746 1.663-1.667 0-.927-.745-1.667-1.663-1.667H101z"/>
        <path fill="#D5D5D5" d="M57.083 21.832v-1.558a1.166 1.166 0 0 0-2.333 0v1.558h-1.558a1.166 1.166 0 0 0 0 2.333h1.558v1.558a1.166 1.166 0 0 0 2.333 0v-1.558h1.558a1.166 1.166 0 0 0 0-2.333h-1.558z"/>
        <path fill="#FFDEDE" d="M83.334 56.398v-1.335a1 1 0 0 0-2 0v1.335h-1.336a1 1 0 0 0 0 2h1.335v1.336a1 1 0 0 0 2 0v-1.336h1.336a1 1 0 0 0 0-2h-1.335z"/>
        <path fill="#FF9292" d="M19.303 53.106l1.546-1.601a1.666 1.666 0 0 0-.043-2.355 1.661 1.661 0 0 0-2.355.04l-1.546 1.6-1.6-1.546a1.666 1.666 0 0 0-2.355.043 1.661 1.661 0 0 0 .039 2.355l1.6 1.546-1.545 1.6a1.666 1.666 0 0 0 .043 2.355 1.661 1.661 0 0 0 2.355-.038l1.546-1.601 1.6 1.546c.66.637 1.716.618 2.355-.044a1.661 1.661 0 0 0-.039-2.354l-1.6-1.546z"/>
        <path fill="#C2E2FC" d="M48.187 44.193v-1.558a1.166 1.166 0 0 0-2.334 0v1.558h-1.558a1.166 1.166 0 0 0 0 2.333h1.558v1.558a1.166 1.166 0 0 0 2.334 0v-1.558h1.558a1.166 1.166 0 0 0 0-2.333h-1.558zM134.39 50.865v-1.558a1.166 1.166 0 0 0-2.333 0v1.558H130.5a1.166 1.166 0 0 0 0 2.334h1.558v1.558a1.166 1.166 0 0 0 2.334 0v-1.558h1.558a1.166 1.166 0 0 0 0-2.334h-1.558z"/>
    </g>
</svg>
