<svg xmlns="http://www.w3.org/2000/svg" xmlns:xlink="http://www.w3.org/1999/xlink" width="195" height="172" viewBox="0 0 195 172">
    <defs>
        <path id="a" d="M0 11.003A5 5 0 0 1 4.998 6H78.65a5.002 5.002 0 0 1 4.997 5.003v100.994A5 5 0 0 1 78.651 117H4.998A5.002 5.002 0 0 1 0 111.997V11.003z"/>
        <path id="b" d="M11 15h62a2 2 0 0 1 2 2v88a2 2 0 0 1-2 2H29.511L9 76.316V17a2 2 0 0 1 2-2z"/>
        <path id="c" d="M3.953 0a3.953 3.953 0 0 1 3.954 3.953v28.85l-4.047 7.49L0 32.803V3.953A3.953 3.953 0 0 1 3.953 0z"/>
        <path id="e" d="M10 74.23h19.65a1 1 0 0 1 1 1v30.405"/>
        <rect id="f" width="30" height="13" x="27" rx="3"/>
    </defs>
    <g fill="none" fill-rule="evenodd">
        <g transform="translate(108.596 58.881)">
            <path fill="#FAFAFA" d="M.176 2.005C.176 1.45.628 1 1.175 1h57.232L84.143.94v103a1.994 1.994 0 0 1-1.993 2.004H2.17c-1.1 0-1.993-.891-1.993-2.003V2.005z"/>
            <circle cx="22.087" cy="23.324" r="7.842" fill="#FFC64F"/>
            <rect width="55.047" height="3.238" x="14.571" y="43.095" fill="#EDEDED" rx="1.619"/>
            <rect width="55.047" height="3.238" x="14.571" y="56.047" fill="#EDEDED" rx="1.619"/>
            <rect width="55.047" height="3.238" x="14.571" y="68.999" fill="#EDEDED" rx="1.619"/>
            <rect width="40.476" height="3.238" x="14.571" y="81.952" fill="#EDEDED" rx="1.619"/>
        </g>
        <g transform="translate(21.596 58.881)">
            <path fill="#FAFAFA" d="M.176 2.005C.176 1.45.628 1 1.175 1h57.232L84.143.94v103a1.994 1.994 0 0 1-1.993 2.004H2.17c-1.1 0-1.993-.891-1.993-2.003V2.005z"/>
            <rect width="55.047" height="3.238" x="14.571" y="43.095" fill="#EDEDED" rx="1.619"/>
            <rect width="55.047" height="3.238" x="14.571" y="56.047" fill="#EDEDED" rx="1.619"/>
            <rect width="55.047" height="3.238" x="14.571" y="68.999" fill="#EDEDED" rx="1.619"/>
            <rect width="40.476" height="3.238" x="14.571" y="81.952" fill="#EDEDED" rx="1.619"/>
        </g>
        <g transform="translate(57 51)">
            <use fill="#DF946D" xlink:href="#a"/>
            <path stroke="#606E81" stroke-width="2" d="M1 11.003v100.994C1 114.207 2.79 116 4.998 116H78.65a4 4 0 0 0 3.997-4.003V11.003c0-2.21-1.79-4.003-3.997-4.003H4.998A4 4 0 0 0 1 11.003z"/>
        </g>
        <g transform="translate(57 51)">
            <use fill="#FFF" xlink:href="#b"/>
            <path stroke="#606E81" stroke-width="2" d="M10 76.012L30.046 106H73a1 1 0 0 0 1-1V17a1 1 0 0 0-1-1H11a1 1 0 0 0-1 1v59.012z"/>
        </g>
        <path stroke="#EDEDED" stroke-width="2" d="M111 136h10v12h-10z"/>
        <path fill="#EDEDED" d="M73.167 92.595c0-.894.728-1.619 1.62-1.619h40.807c.895 0 1.62.719 1.62 1.62 0 .893-.728 1.618-1.62 1.618H74.787c-.895 0-1.62-.718-1.62-1.619zM73.167 105.548a1.62 1.62 0 0 1 1.615-1.62H101.6a1.62 1.62 0 0 1 0 3.238H74.782a1.613 1.613 0 0 1-1.615-1.618zM73.167 118.5c0-.894.723-1.62 1.624-1.62H96.59a1.619 1.619 0 1 1 0 3.238H74.79a1.618 1.618 0 0 1-1.624-1.618z"/>
        <g transform="rotate(125 38.405 96.177)">
            <mask id="d" fill="#fff">
                <use xlink:href="#c"/>
            </mask>
            <use fill="#F8D883" xlink:href="#c"/>
            <path stroke="#606E81" stroke-width="2" d="M1 32.56l2.88 5.59 3.027-5.6V3.953a2.953 2.953 0 1 0-5.907 0V32.56z"/>
            <path fill="#606E81" d="M-1.248 29.962h9.987v11.236h-9.987z" mask="url(#d)"/>
        </g>
        <g transform="translate(57 51)">
            <use fill="#D8D8D8" xlink:href="#e"/>
            <path stroke="#606E81" stroke-width="2" d="M11.854 75.23l17.797 27.064V75.23H11.854z"/>
        </g>
        <g transform="translate(57 51)">
            <use fill="#F4F8FF" xlink:href="#f"/>
            <rect width="28" height="11" x="28" y="1" stroke="#606E81" stroke-width="2" rx="3"/>
        </g>
        <path stroke="#FD8787" stroke-linecap="round" stroke-linejoin="round" stroke-width="2" d="M52.59 60.968l-4.833-1.053M56.009 54.283l-8.405-6.58M61.992 51.905l.569-5.411"/>
        <rect width="194.826" height="4.306" y="167.694" fill="#D6D6D6" rx="2.153"/>
        <path fill="#89CAFF" d="M91.255 33.538l.386-2.192a1.666 1.666 0 0 0-1.352-1.928 1.661 1.661 0 0 0-1.93 1.35l-.387 2.191-2.192-.386a1.666 1.666 0 0 0-1.927 1.352 1.661 1.661 0 0 0 1.349 1.93l2.191.387-.386 2.192a1.666 1.666 0 0 0 1.352 1.927 1.661 1.661 0 0 0 1.93-1.349l.387-2.191 2.192.386a1.666 1.666 0 0 0 1.928-1.352 1.661 1.661 0 0 0-1.35-1.93l-2.191-.387zM99 6.254V4.03c0-.917-.746-1.664-1.667-1.664-.927 0-1.667.745-1.667 1.664v2.225h-2.225c-.917 0-1.664.747-1.664 1.667 0 .927.745 1.667 1.664 1.667h2.225v2.225c0 .918.747 1.664 1.667 1.664.927 0 1.667-.745 1.667-1.664V9.588h2.226c.917 0 1.663-.746 1.663-1.667 0-.927-.745-1.667-1.663-1.667H99z"/>
        <path fill="#D5D5D5" d="M63.5 25.978V24.42a1.166 1.166 0 0 0-2.334 0v1.558h-1.558a1.166 1.166 0 0 0 0 2.333h1.558v1.558a1.166 1.166 0 0 0 2.333 0V28.31h1.558a1.166 1.166 0 0 0 0-2.333H63.5z"/>
        <path fill="#FFDEDE" d="M124.112 34.922v-1.335a1 1 0 0 0-2 0v1.335h-1.335a1 1 0 0 0 0 2h1.335v1.336a1 1 0 0 0 2 0v-1.336h1.335a1 1 0 0 0 0-2h-1.335z"/>
        <path fill="#FF9292" d="M50.8 13.88l1.546-1.601a1.666 1.666 0 0 0-.044-2.355 1.661 1.661 0 0 0-2.354.039l-1.546 1.6-1.601-1.545a1.666 1.666 0 0 0-2.355.043 1.661 1.661 0 0 0 .04 2.355l1.6 1.546-1.546 1.6a1.666 1.666 0 0 0 .043 2.355 1.661 1.661 0 0 0 2.355-.039l1.546-1.6 1.6 1.545c.66.638 1.716.62 2.355-.043a1.661 1.661 0 0 0-.038-2.354L50.8 13.88z"/>
        <path fill="#C2E2FC" d="M154.382 37.834v-1.558a1.166 1.166 0 0 0-2.334 0v1.558h-1.558a1.166 1.166 0 0 0 0 2.334h1.558v1.557a1.166 1.166 0 0 0 2.334 0v-1.557h1.557a1.166 1.166 0 0 0 0-2.334h-1.557zM132.39 2.865V1.307a1.166 1.166 0 0 0-2.333 0v1.558H128.5a1.166 1.166 0 0 0 0 2.334h1.558v1.558a1.166 1.166 0 0 0 2.334 0V5.199h1.558a1.166 1.166 0 0 0 0-2.334h-1.558z"/>
    </g>
</svg>
