<svg xmlns="http://www.w3.org/2000/svg" xmlns:xlink="http://www.w3.org/1999/xlink" width="143" height="142" viewBox="0 0 143 142">
    <defs>
        <rect id="a" width="7.524" height="46.492" x="52.448" y="-3.789" rx="1"/>
        <path id="b" d="M29.186 42.157H74.5v55.534a5 5 0 0 1-5 5H34.186a5 5 0 0 1-5-5V42.157z"/>
        <path id="c" d="M.08 1c0-.552.438-1 1.007-1h23.527c1.101 0 1.994.89 1.994 2v8.108c0 1.104.89 2 2.004 2h6.354a2.997 2.997 0 0 1 2.998 3.004v30.242a2 2 0 0 1-1.997 1.995H2.077a2.005 2.005 0 0 1-1.998-2.004V1z"/>
    </defs>
    <g fill="none" fill-rule="evenodd">
        <g transform="translate(.697 -2.384)">
            <rect width="141.606" height="4.613" y="139.154" fill="#EEE" rx="2.307"/>
            <path fill="#89CAFF" d="M65.04 11.918v-1.54a1.153 1.153 0 0 0-2.306 0v1.54h-1.54a1.153 1.153 0 0 0 0 2.307h1.54v1.54a1.153 1.153 0 0 0 2.306 0v-1.54h1.54a1.153 1.153 0 0 0 0-2.307h-1.54z"/>
            <path fill="#D5D5D5" d="M54.314 24.182v-1.078a.802.802 0 0 0-.807-.805.805.805 0 0 0-.808.805v1.078h-1.078a.802.802 0 0 0-.805.808c0 .449.36.807.805.807H52.7v1.078c0 .453.362.806.808.806.449 0 .807-.36.807-.806v-1.078h1.078a.802.802 0 0 0 .806-.807.805.805 0 0 0-.806-.808h-1.078z"/>
            <path fill="#FFDEDE" d="M76.882 26.22v-.914a.69.69 0 0 0-.692-.7.695.695 0 0 0-.692.7v.914h-.914a.69.69 0 0 0-.701.692c0 .385.314.692.7.692h.915v.914c0 .398.31.7.692.7a.695.695 0 0 0 .692-.7v-.914h.914c.398 0 .7-.31.7-.692a.695.695 0 0 0-.7-.692h-.914z"/>
            <path fill="#FF9292" d="M45.526 6.123l1.07-1.108a1.153 1.153 0 0 0-1.66-1.602l-1.07 1.107-1.107-1.07a1.153 1.153 0 0 0-1.602 1.66l1.107 1.07-1.07 1.108a1.153 1.153 0 0 0 1.66 1.602l1.07-1.108 1.108 1.07a1.153 1.153 0 0 0 1.602-1.66l-1.108-1.07z"/>
            <path fill="#C2E2FC" d="M88.146 9.573V8.495a.802.802 0 0 0-.807-.806.805.805 0 0 0-.807.806v1.078h-1.078a.802.802 0 0 0-.806.807c0 .45.36.808.806.808h1.078v1.078c0 .452.361.806.807.806.449 0 .807-.361.807-.806v-1.078h1.078a.802.802 0 0 0 .806-.808.805.805 0 0 0-.806-.807h-1.078z"/>
        </g>
        <g transform="translate(17.992 34.369)">
            <g transform="translate(69.181 58.372)">
                <path fill="#EDEDED" d="M24.28 0l10.861 11.474-8.892.018a1.992 1.992 0 0 1-1.992-1.999L24.28 0z"/>
                <path fill="#FAFAFA" d="M.073.996C.073.446.515 0 1.07 0h23.27v9.46c0 1.103.895 1.996 1.991 1.996h8.733v30.282c0 1.101-.9 1.994-2.007 1.994H2.08A2 2 0 0 1 .073 41.74V.996z"/>
                <circle cx="9.204" cy="9.303" r="3.268" fill="#FFC64F"/>
                <rect width="22.939" height="1.349" x="6.072" y="17.542" fill="#EDEDED" rx=".675"/>
                <rect width="22.939" height="1.349" x="6.072" y="22.939" fill="#EDEDED" rx=".675"/>
                <rect width="22.939" height="1.349" x="6.072" y="28.337" fill="#EDEDED" rx=".675"/>
                <rect width="16.867" height="1.349" x="6.072" y="33.734" fill="#EDEDED" rx=".675"/>
            </g>
            <g transform="rotate(-45 56.21 19.457)">
                <use fill="#51D881" xlink:href="#a"/>
                <rect width="5.524" height="44.492" x="53.448" y="-2.789" stroke="#606E81" stroke-width="2" rx="1"/>
            </g>
            <circle cx="74.046" cy="38.374" r="4.864" fill="#D8D8D8" stroke="#606E81" stroke-width="2"/>
            <use fill="#51D881" xlink:href="#b"/>
            <path stroke="#606E81" stroke-width="2" d="M30.186 43.157v54.534a4 4 0 0 0 4 4H69.5a4 4 0 0 0 4-4V43.157H30.186z"/>
            <rect width="2.162" height="24.862" x="42.157" y="55.129" fill="#606E81" rx="1.081"/>
            <rect width="2.162" height="24.862" x="57.291" y="67.02" fill="#606E81" rx="1.081"/>
            <g transform="translate(0 17.295)">
                <use fill="#FAFAFA" xlink:href="#c"/>
                <path stroke="#606E81" stroke-width="2" d="M1.08 1v44.345c0 .552.45 1.004.996 1.004h33.891a1 1 0 0 0 .997-.995V15.112a1.997 1.997 0 0 0-1.998-2.004h-6.354a2.998 2.998 0 0 1-3.004-3V2c0-.555-.444-.999-.994-.999H1.087c-.012 0-.008-.005-.008 0z"/>
            </g>
            <path fill="#D8D8D8" stroke="#606E81" stroke-linejoin="round" stroke-width="2" d="M25.555 19.128l10 11.322-5.702.012h-.325a3.982 3.982 0 0 1-3.99-3.99l.017-7.344z"/>
            <circle cx="10.81" cy="30.267" r="3.243" fill="#FFC64F"/>
            <rect width="23.781" height="2.162" x="7.567" y="39.996" fill="#D8D8D8" rx="1"/>
            <rect width="23.781" height="2.162" x="7.567" y="47.562" fill="#D8D8D8" rx="1"/>
            <rect width="23.781" height="2.162" x="7.567" y="55.129" fill="#D8D8D8" rx="1"/>
        </g>
    </g>
</svg>
