<svg xmlns="http://www.w3.org/2000/svg" xmlns:xlink="http://www.w3.org/1999/xlink" width="250" height="250" viewBox="0 0 250 250">
    <defs>
        <path id="a" d="M43.17 130.071l36.951-32.07 37.953 32.214"/>
        <rect id="b" width="77" height="47" x="42" y="129" rx="4"/>
        <path id="c" d="M18.094-11.404c0-1.106.888-2.002 2.004-2.002H50.59a2 2 0 0 1 2.004 1.994V46.1c0 1.102-.89 1.906-1.995 1.796l-15.255-1.518-17.25-10.284v-47.498z"/>
        <path id="d" d="M13.201 6h37.724c1.103 0 1.997.887 1.997 2.009v10.878c0 1.11.898 2.009 2.002 2.009h14.162c.551 0 .997.445.997.996v32.199c0 1.1-.895 1.992-2.008 1.992H17.2L.123 28.157 13.2 6z"/>
    </defs>
    <g fill="none" fill-rule="evenodd">
        <g transform="translate(42 29)">
            <path fill="#C5E5FF" d="M44 130.002c0-1.106.888-2.002 2-2.002h2v43h-2c-1.105 0-2-.898-2-2.002v-38.996z" opacity=".2"/>
            <g transform="rotate(-89 76.257 65.289)">
                <rect width="41" height="69" fill="#FAFAFA" rx="2"/>
                <circle cx="20.5" cy="34.5" r="11.5" fill="#EDEDED"/>
            </g>
            <g transform="rotate(-89 128.486 38.602)">
                <rect width="41" height="69" fill="#FAFAFA" rx="2"/>
                <circle cx="20.5" cy="34.5" r="11.5" fill="#EDEDED"/>
            </g>
            <path fill="#FFF" d="M54 120.002c0-1.106.888-2.002 2-2.002h2v43h-2c-1.105 0-2-.898-2-2.002v-38.996z" opacity=".2"/>
            <rect width="167" height="4" y="176" fill="#EEE" rx="2"/>
            <g transform="translate(35)">
                <path fill="#FF9292" d="M87.121 27.963l1.391-1.44a1.5 1.5 0 0 0-.039-2.12c-.6-.58-1.544-.56-2.119.035l-1.391 1.441-1.44-1.391a1.5 1.5 0 0 0-2.12.039c-.58.6-.56 1.544.035 2.119l1.441 1.391-1.391 1.44a1.5 1.5 0 0 0 .039 2.12c.6.58 1.544.56 2.119-.035l1.391-1.441 1.44 1.391a1.5 1.5 0 0 0 2.12-.039c.58-.6.56-1.544-.035-2.119l-1.441-1.391z"/>
                <path fill="#89CAFF" d="M7.5 37.5h2.003A1.5 1.5 0 0 0 11 36c0-.834-.67-1.5-1.497-1.5H7.5v-2.003A1.5 1.5 0 0 0 6 31c-.834 0-1.5.67-1.5 1.497V34.5H2.497A1.5 1.5 0 0 0 1 36c0 .834.67 1.5 1.497 1.5H4.5v2.003A1.5 1.5 0 0 0 6 41c.834 0 1.5-.67 1.5-1.497V37.5z"/>
                <path fill="#51D881" d="M63.9 2.1V.898A.894.894 0 0 0 63 0c-.5 0-.9.402-.9.898V2.1h-1.202A.894.894 0 0 0 60 3c0 .5.402.9.898.9H62.1v1.202c0 .504.403.898.9.898.5 0 .9-.402.9-.898V3.9h1.202A.894.894 0 0 0 66 3c0-.5-.402-.9-.898-.9H63.9z"/>
                <circle cx="44.5" cy="29.5" r="1.5" stroke="#C2E2FC" stroke-width="2"/>
                <path fill="#FFDEDE" d="M20.45 2.45V1.048a1.05 1.05 0 0 1 2.1 0V2.45h1.402a1.05 1.05 0 0 1 0 2.1H22.55v1.402a1.05 1.05 0 0 1-2.1 0V4.55h-1.402a1.05 1.05 0 0 1 0-2.1h1.402z"/>
                <path fill="#FFD783" d="M26.1 56.1v-1.202c0-.504.403-.898.9-.898.5 0 .9.402.9.898V56.1h1.202c.504 0 .898.403.898.9 0 .5-.402.9-.898.9H27.9v1.202A.894.894 0 0 1 27 60c-.5 0-.9-.402-.9-.898V57.9h-1.202A.894.894 0 0 1 24 57c0-.5.402-.9.898-.9H26.1z"/>
                <circle cx="68.5" cy="56.5" r="2.5" stroke="#EDEDED" stroke-width="2"/>
            </g>
            <use fill="#DBD9D5" xlink:href="#a"/>
            <path stroke="#606E81" stroke-width="2" d="M45.843 129.077l69.501.133-35.216-29.89-34.285 29.757z"/>
            <use fill="#FFD783" xlink:href="#b"/>
            <rect width="75" height="45" x="43" y="130" stroke="#606E81" stroke-width="2" rx="4"/>
            <path fill="#FFC64F" d="M104 139l11.3-6.954c.94-.578 1.7-.148 1.7.956v38.996a2 2 0 0 1-2.003 2.002H104v-35z"/>
            <rect width="3" height="27" x="49" y="143" fill="#FFE1A2" rx="1.5"/>
            <path stroke="#606E81" stroke-linejoin="round" stroke-width="2" d="M44.064 131.145l36.043 21.924 37.05-21.948"/>
            <path stroke="#606E81" stroke-width="2" d="M80.14 153.067l36.938 20.944"/>
            <circle cx="119" cy="171" r="20" fill="#51D881" stroke="#606E81" stroke-width="2"/>
        </g>
        <g transform="matrix(0 -1 -1 0 150 183)">
            <g transform="rotate(90 35.344 17.25)">
                <use fill="#36BC66" xlink:href="#c"/>
                <path stroke="#606E81" stroke-width="2" d="M19.094 35.526l16.571 9.879L50.698 46.9c.516.051.896-.291.896-.8v-57.513a1 1 0 0 0-1.004-.994H20.098a.997.997 0 0 0-1.004 1.002v46.93z"/>
            </g>
            <path fill="#61EB92" stroke="#606E81" stroke-linejoin="round" stroke-width="2" d="M52.026 7L69 22H53.997A1.993 1.993 0 0 1 52 20.008L52.026 7z"/>
            <use fill="#51D881" xlink:href="#d"/>
            <path stroke="#606E81" stroke-width="2" d="M13.772 7L1.29 28.148l16.473 26.935h50.313a.998.998 0 0 0 1.008-.992V21.896H54.924a3.007 3.007 0 0 1-3.002-3.01V8.01A.995.995 0 0 0 50.925 7H13.772z"/>
            <circle cx="28.035" cy="31.181" r="14" fill="#36BC66"/>
            <path fill="#71E399" d="M63.999 50A.998.998 0 0 1 65 51c0 .552-.445 1-1.003 1H17l-1-2h47.999z"/>
        </g>
        <g transform="translate(152 195)">
            <rect width="16" height="2" y="4" fill="#FFF" rx="1"/>
            <path stroke="#FFF" stroke-linecap="round" stroke-linejoin="round" stroke-width="2" d="M11.988.024l4.058 4.994-4.019 5.038"/>
        </g>
    </g>
</svg>
