<svg xmlns="http://www.w3.org/2000/svg" xmlns:xlink="http://www.w3.org/1999/xlink" width="181" height="169" viewBox="0 0 181 169">
    <defs>
        <rect id="a" width="77" height="47" x="53" y="118" rx="4"/>
    </defs>
    <g fill="none" fill-rule="evenodd">
        <path fill="#C5E5FF" d="M55 119.002c0-1.106.888-2.002 2-2.002h2v43h-2c-1.105 0-2-.898-2-2.002v-38.996z" opacity=".2"/>
        <path fill="#FFF" d="M65 109.002c0-1.106.888-2.002 2-2.002h2v43h-2c-1.105 0-2-.898-2-2.002v-38.996z" opacity=".2"/>
        <rect width="181" height="4" y="165" fill="#EEE" rx="2"/>
        <rect width="131" height="16" x="25" y="138" fill="#FAFAFA" rx="8"/>
        <rect width="131" height="16" x="25" y="112" fill="#FAFAFA" rx="8"/>
        <g transform="matrix(-1 0 0 1 123 0)">
            <path fill="#89CAFF" d="M36.5 26.5v-2.003A1.5 1.5 0 0 0 35 23c-.834 0-1.5.67-1.5 1.497V26.5h-2.003A1.5 1.5 0 0 0 30 28c0 .834.67 1.5 1.497 1.5H33.5v2.003A1.5 1.5 0 0 0 35 33c.834 0 1.5-.67 1.5-1.497V29.5h2.003A1.5 1.5 0 0 0 40 28c0-.834-.67-1.5-1.497-1.5H36.5z"/>
            <path fill="#51D881" d="M53.9 2.1V.898A.894.894 0 0 0 53 0c-.5 0-.9.402-.9.898V2.1h-1.202A.894.894 0 0 0 50 3c0 .5.402.9.898.9H52.1v1.202c0 .504.403.898.9.898.5 0 .9-.402.9-.898V3.9h1.202A.894.894 0 0 0 56 3c0-.5-.402-.9-.898-.9H53.9z"/>
            <circle cx="72.5" cy="29.5" r="1.5" stroke="#C2E2FC" stroke-width="2"/>
            <path fill="#FFDEDE" d="M2.45 18.45v-1.402a1.05 1.05 0 0 1 2.1 0v1.402h1.402a1.05 1.05 0 0 1 0 2.1H4.55v1.402a1.05 1.05 0 0 1-2.1 0V20.55H1.048a1.05 1.05 0 0 1 0-2.1H2.45z"/>
            <path fill="#FFD783" d="M16.1 56.1v-1.202c0-.504.403-.898.9-.898.5 0 .9.402.9.898V56.1h1.202c.504 0 .898.403.898.9 0 .5-.402.9-.898.9H17.9v1.202A.894.894 0 0 1 17 60c-.5 0-.9-.402-.9-.898V57.9h-1.202A.894.894 0 0 1 14 57c0-.5.402-.9.898-.9H16.1z"/>
            <circle cx="58.5" cy="56.5" r="2.5" stroke="#EDEDED" stroke-width="2"/>
        </g>
        <path fill="#D1D1D1" fill-rule="nonzero" stroke="#606E81" stroke-width="2" d="M107.415 119v-14c0-7.733-6.88-14-15.371-14h-1.088c-8.495 0-15.37 6.265-15.37 14v14h31.829zM69 105c0-11.046 9.82-20 21.956-20h1.088C104.17 85 114 93.952 114 105v20H69v-20z"/>
        <use fill="#FFD783" xlink:href="#a"/>
        <rect width="75" height="45" x="54" y="119" stroke="#606E81" stroke-width="2" rx="4"/>
        <path fill="#FFC64F" d="M115 120h10.997c1.106 0 2.003.898 2.003 2.002v38.996a2 2 0 0 1-2.003 2.002H115v-43z"/>
        <rect width="5" height="31" x="60" y="126" fill="#FFE1A2" rx="2.5"/>
        <path fill="#BD9135" d="M88 140h6v12h-6z"/>
        <circle cx="91" cy="136" r="6" fill="#BD9135"/>
        <circle cx="142" cy="82" r="20" fill="#51D881" stroke="#606E81" stroke-width="2"/>
        <path stroke="#FFF" stroke-linecap="round" stroke-linejoin="round" stroke-width="2" d="M134.728 82.845l5.304 5.303 11.492-11.493"/>
    </g>
</svg>
