<svg xmlns="http://www.w3.org/2000/svg" xmlns:xlink="http://www.w3.org/1999/xlink" width="250" height="250" viewBox="0 0 250 250">
    <defs>
        <path id="a" d="M43 78.003A5 5 0 0 1 47.998 73h73.653a5.002 5.002 0 0 1 4.997 5.003v100.994a5 5 0 0 1-4.997 5.003H47.998A5.002 5.002 0 0 1 43 178.997V78.003z"/>
        <rect id="b" width="66" height="92" x="52" y="82" rx="4"/>
        <rect id="c" width="30" height="13" x="70" y="67" rx="3"/>
    </defs>
    <g fill="none" fill-rule="evenodd">
        <g transform="translate(38 22)">
            <rect width="44" height="74" fill="#FAFAFA" rx="2" transform="translate(6 82)"/>
            <rect width="44" height="77" fill="#FAFAFA" rx="2" transform="translate(121 107)"/>
            <use fill="#DF946D" xlink:href="#a"/>
            <path stroke="#606E81" stroke-width="2" d="M44 78.003v100.994c0 2.21 1.79 4.003 3.998 4.003h73.653a4 4 0 0 0 3.997-4.003V78.003c0-2.21-1.79-4.003-3.997-4.003H47.998A4 4 0 0 0 44 78.003z"/>
            <use fill="#FFF" xlink:href="#b"/>
            <rect width="64" height="90" x="53" y="83" stroke="#606E81" stroke-width="2" rx="4"/>
            <rect width="173" height="4" y="184" fill="#EEE" rx="2"/>
            <path fill="#D5D5D5" d="M65.55 33.45v-1.402a1.05 1.05 0 0 0-2.1 0v1.402h-1.402a1.05 1.05 0 0 0 0 2.1h1.402v1.402a1.05 1.05 0 0 0 2.1 0V35.55h1.402a1.05 1.05 0 0 0 0-2.1H65.55z"/>
            <path fill="#FFDEDE" d="M94.9 36.1v-1.202A.894.894 0 0 0 94 34c-.5 0-.9.402-.9.898V36.1h-1.202A.894.894 0 0 0 91 37c0 .5.402.9.898.9H93.1v1.202c0 .504.403.898.9.898.5 0 .9-.402.9-.898V37.9h1.202A.894.894 0 0 0 97 37c0-.5-.402-.9-.898-.9H94.9z"/>
            <path fill="#51D881" d="M55.526 7.474l2.003-.035a1.5 1.5 0 0 0 1.47-1.526 1.495 1.495 0 0 0-1.523-1.474l-2.002.035-.035-2.003a1.5 1.5 0 0 0-1.526-1.47 1.495 1.495 0 0 0-1.474 1.523l.035 2.002-2.003.035a1.5 1.5 0 0 0-1.47 1.526 1.495 1.495 0 0 0 1.523 1.474l2.002-.035.035 2.003a1.5 1.5 0 0 0 1.526 1.47 1.495 1.495 0 0 0 1.474-1.523l-.035-2.002z"/>
            <path fill="#FF9292" d="M114.55 14.45v-1.402a1.05 1.05 0 0 0-2.1 0v1.402h-1.402a1.05 1.05 0 0 0 0 2.1h1.402v1.402a1.05 1.05 0 0 0 2.1 0V16.55h1.402a1.05 1.05 0 0 0 0-2.1h-1.402z"/>
            <g>
                <use fill="#D8D8D8" xlink:href="#c"/>
                <rect width="28" height="11" x="71" y="68" stroke="#606E81" stroke-width="2" rx="3"/>
            </g>
            <path stroke="#606E81" stroke-width="2" d="M75 79v4.99A3.005 3.005 0 0 0 78.01 87h13.98c1.66 0 3.01-1.35 3.01-3.01V79H75z"/>
        </g>
        <path fill="#F1B494" d="M83 100.002A3.007 3.007 0 0 1 86.01 97H90v107h-3.99a3.011 3.011 0 0 1-3.01-3.002V100.002z"/>
        <rect width="18" height="3" x="53" y="114" fill="#EDEDED" rx="1.5"/>
        <rect width="18" height="3" x="53" y="127" fill="#EDEDED" rx="1.5"/>
        <rect width="18" height="3" x="53" y="135" fill="#EDEDED" rx="1.5"/>
        <rect width="18" height="3" x="53" y="143" fill="#EDEDED" rx="1.5"/>
        <rect width="10" height="3" x="53" y="164" fill="#EDEDED" rx="1.5"/>
        <rect width="18" height="3" x="173" y="141" fill="#EDEDED" rx="1.5"/>
        <rect width="18" height="3" x="173" y="154" fill="#EDEDED" rx="1.5"/>
        <rect width="18" height="3" x="173" y="162" fill="#EDEDED" rx="1.5"/>
        <rect width="18" height="3" x="173" y="170" fill="#EDEDED" rx="1.5"/>
        <rect width="10" height="3" x="173" y="191" fill="#EDEDED" rx="1.5"/>
        <rect width="27" height="3" x="99" y="145" fill="#EDEDED" rx="1.5"/>
        <rect width="27" height="3" x="99" y="130" fill="#EDEDED" rx="1.5"/>
        <rect width="27" height="3" x="99" y="160" fill="#EDEDED" rx="1.5"/>
        <rect width="27" height="3" x="99" y="175" fill="#EDEDED" rx="1.5"/>
        <path fill="#C5C5C5" d="M132 91h4v9h-4z"/>
        <circle cx="118" cy="40" r="2" stroke="#89CAFF" stroke-width="2"/>
        <g transform="translate(135 122)">
            <circle cx="28" cy="85" r="20" fill="#51D881" stroke="#606E81" stroke-width="2"/>
            <rect width="17" height="2" x="19" y="84" fill="#FFF" rx="1"/>
            <path stroke="#FF9292" stroke-linecap="round" stroke-linejoin="round" stroke-width="2" d="M.728 51.845l3.346 3.345 7.25-7.25M.728 37.845l3.346 3.345 7.25-7.25M.728 22.845l3.346 3.345 7.25-7.25M.728 7.845l3.346 3.345 7.25-7.25"/>
            <path stroke="#FFF" stroke-linecap="round" stroke-linejoin="round" stroke-width="2" d="M32.115 80.05l3.95 4.953-3.966 5.04"/>
        </g>
    </g>
</svg>
