<svg xmlns="http://www.w3.org/2000/svg" xmlns:xlink="http://www.w3.org/1999/xlink" width="169" height="148" viewBox="0 0 169 148">
    <defs>
        <rect id="a" width="11.718" height="25.504" rx="5"/>
        <path id="b" d="M21.403 89.476c0-1.106.888-2.004 1.991-2.004h70.462a2 2 0 0 1 1.992 2.004v49.837a3.993 3.993 0 0 1-4.003 3.993h-66.44a4.002 4.002 0 0 1-4.002-3.993V89.476z"/>
        <rect id="c" width="17.681" height="26.056" x="64.209" y="117.25" rx="2"/>
        <rect id="d" width="15.819" height="34.431" x="15.819" y="67.931" rx="5"/>
        <rect id="e" width="15.819" height="34.431" x="29.778" y="67.931" rx="5"/>
        <rect id="f" width="15.819" height="34.431" x="43.736" y="67.931" rx="5"/>
        <rect id="g" width="15.819" height="34.431" x="57.695" y="67.931" rx="5"/>
        <rect id="h" width="15.819" height="34.431" x="71.653" y="67.931" rx="5"/>
        <rect id="i" width="15.819" height="34.431" x="85.611" y="67.931" rx="5"/>
        <rect id="j" width="14.889" height="23.264" x="11.167" y="109.806" rx="5"/>
        <path id="k" d="M121.013 103.638H121V118l10.88-4.308L143 118v-14.277h.006V99l-5.984 3.768L132.116 99l-5.067 3.768-6.036-3.195v4.065z"/>
        <path id="l" d="M30 45.917V32.5H8v14.169h.014v.608l5.8 3.309 5.12-3.487 5.293 3.487 5.787-3.487v-1.182H30z"/>
    </defs>
    <g fill="none" fill-rule="evenodd">
        <g transform="translate(.284 .486)">
            <g transform="translate(94.917 87.472)">
                <path fill="#FAFAFA" d="M4.136 16.47c0-1.102.888-1.995 1.995-1.995h51.154a2 2 0 0 1 1.995 1.995v35.36a4 4 0 0 1-4 4.004H8.136a4 4 0 0 1-4-4.004V16.47z"/>
                <path fill="#E5E5E5" d="M36.292 38.526c0-1.1.886-1.993 2-1.993h8.89c1.104 0 2 .905 2 1.993v17.308h-12.89V38.526z"/>
                <circle cx="39.083" cy="47.458" r="1" fill="#D8D8D8"/>
                <use fill="#FD8787" xlink:href="#a"/>
                <rect width="9.718" height="23.504" x="1" y="1" stroke="#606E81" stroke-width="2" rx="4.859"/>
                <rect width="9.857" height="25.504" x="53.559" fill="#EDEDED" rx="4"/>
                <rect width="9.857" height="25.504" x="44.253" fill="#E5E5E5" rx="4"/>
                <rect width="9.857" height="25.504" x="34.948" fill="#EDEDED" rx="4"/>
                <rect width="9.857" height="25.504" x="25.642" fill="#E5E5E5" rx="4"/>
                <rect width="9.857" height="25.504" x="16.336" fill="#EDEDED" rx="4"/>
            </g>
            <g transform="translate(15.82)">
                <use fill="#E7E5E1" xlink:href="#b"/>
                <path stroke="#606E81" stroke-width="2" d="M22.403 89.476v49.837a3.002 3.002 0 0 0 3.002 2.993h66.44a2.993 2.993 0 0 0 3.003-2.993V89.476a1 1 0 0 0-.992-1.004H23.394a.995.995 0 0 0-.991 1.004z"/>
                <use fill="#56AAEF" xlink:href="#c"/>
                <rect width="15.681" height="24.056" x="65.209" y="118.25" stroke="#606E81" stroke-width="2" rx="2"/>
                <circle cx="68.861" cy="130.278" r="1" fill="#606E81"/>
                <g transform="matrix(-1 0 0 1 78.167 0)">
                    <path fill="#E5E5E5" d="M3.257 20.938v-1.864c0-.768.625-1.393 1.396-1.393.776 0 1.396.623 1.396 1.393v1.864h1.863c.769 0 1.394.625 1.394 1.395 0 .777-.624 1.396-1.394 1.396H6.05v1.864c0 .768-.625 1.393-1.396 1.393a1.391 1.391 0 0 1-1.396-1.393V23.73H1.393A1.395 1.395 0 0 1 0 22.333c0-.776.624-1.395 1.393-1.395h1.864zM46.621 44.76v-1.118c0-.47.375-.836.837-.836.466 0 .838.374.838.836v1.118h1.118c.47 0 .836.375.836.837a.835.835 0 0 1-.836.838h-1.118v1.118c0 .47-.375.836-.838.836a.835.835 0 0 1-.837-.836v-1.118h-1.118a.832.832 0 0 1-.836-.838c0-.465.374-.837.836-.837h1.118z"/>
                    <path fill="#FD8787" d="M57.714 21.748l-.839-1a.977.977 0 0 1 1.497-1.256l.839 1 1-.84a.977.977 0 0 1 1.255 1.498l-.999.839.839.999a.977.977 0 0 1-1.497 1.256l-.839-1-1 .84a.977.977 0 0 1-1.256-1.498l1-.838z"/>
                    <path fill="#FFD783" d="M19.635 1.954V.836c0-.47.375-.836.837-.836.466 0 .838.374.838.836v1.118h1.118c.47 0 .836.375.836.838a.835.835 0 0 1-.836.837H21.31v1.118c0 .47-.375.836-.838.836a.835.835 0 0 1-.837-.836V3.63h-1.119a.832.832 0 0 1-.835-.837c0-.466.374-.838.835-.838h1.119z"/>
                    <circle cx="20.007" cy="45.132" r="2.326" stroke="#C2E2FC" stroke-width="2"/>
                    <circle cx="33.035" cy="21.868" r="1.396" stroke="#C2E2FC" stroke-width="2"/>
                </g>
                <path fill="#D6CDBE" d="M23.264 100.5h7.444v4.438a3.008 3.008 0 0 1-3.006 3.007h-4.438V100.5zM93.986 100.5h-7.444v4.438a3.008 3.008 0 0 0 3.006 3.007h4.438V100.5z"/>
                <path fill="#D6CDBE" d="M30.708 100.5h13.959v4.438a2.999 2.999 0 0 1-2.995 3.007h-7.97a3.002 3.002 0 0 1-2.994-3.007V100.5z"/>
                <path fill="#D6CDBE" d="M44.667 100.5h13.958v4.438a2.999 2.999 0 0 1-2.994 3.007h-7.97a3.002 3.002 0 0 1-2.994-3.007V100.5z"/>
                <path fill="#D6CDBE" d="M58.625 100.5h13.959v4.438a2.999 2.999 0 0 1-2.995 3.007h-7.97a3.002 3.002 0 0 1-2.994-3.007V100.5z"/>
                <path fill="#D6CDBE" d="M72.584 100.5h13.958v4.438a2.999 2.999 0 0 1-2.994 3.007h-7.97a3.002 3.002 0 0 1-2.994-3.007V100.5z"/>
                <use fill="#FD8787" xlink:href="#d"/>
                <rect width="13.819" height="32.431" x="16.819" y="68.931" stroke="#606E81" stroke-width="2" rx="5"/>
                <use fill="#F4F4F4" xlink:href="#e"/>
                <rect width="13.819" height="32.431" x="30.778" y="68.931" stroke="#606E81" stroke-width="2" rx="5"/>
                <use fill="#FD8787" xlink:href="#f"/>
                <rect width="13.819" height="32.431" x="44.736" y="68.931" stroke="#606E81" stroke-width="2" rx="5"/>
                <use fill="#F4F4F4" xlink:href="#g"/>
                <rect width="13.819" height="32.431" x="58.695" y="68.931" stroke="#606E81" stroke-width="2" rx="5"/>
                <use fill="#FD8787" xlink:href="#h"/>
                <rect width="13.819" height="32.431" x="72.653" y="68.931" stroke="#606E81" stroke-width="2" rx="5"/>
                <use fill="#F4F4F4" xlink:href="#i"/>
                <rect width="13.819" height="32.431" x="86.611" y="68.931" stroke="#606E81" stroke-width="2" rx="5"/>
                <path fill="#F26D6D" d="M17.68 92.125h12.098V97.5c0 1.657-1.341 3-2.99 3H20.67a2.997 2.997 0 0 1-2.99-3v-5.375z"/>
                <path fill="#DFDBDB" d="M31.639 92.125h12.097V97.5c0 1.657-1.34 3-2.99 3h-6.117a2.997 2.997 0 0 1-2.99-3v-5.375z"/>
                <path fill="#F26D6D" d="M45.597 92.125h12.098V97.5c0 1.657-1.341 3-2.99 3h-6.117a2.997 2.997 0 0 1-2.99-3v-5.375z"/>
                <path fill="#DFDBDB" d="M59.556 92.125h12.097V97.5c0 1.657-1.34 3-2.99 3h-6.117a2.997 2.997 0 0 1-2.99-3v-5.375z"/>
                <path fill="#F26D6D" d="M73.514 92.125h12.097V97.5c0 1.657-1.34 3-2.99 3h-6.117a2.997 2.997 0 0 1-2.99-3v-5.375z"/>
                <path fill="#DFDBDB" d="M87.472 92.125H99.57V97.5c0 1.657-1.341 3-2.99 3h-6.117a2.997 2.997 0 0 1-2.99-3v-5.375z"/>
                <circle cx="43.271" cy="124.23" r="6.049" fill="#89CAFF" stroke="#606E81" stroke-width="2"/>
                <circle cx="44.202" cy="124.23" r="4.188" fill="#56AAEF"/>
                <rect width="1.861" height="20.472" x="1.861" y="122.834" fill="#606E81" rx=".931"/>
                <rect width="5.583" height="1.861" y="141.445" fill="#606E81" rx=".931"/>
            </g>
            <path fill="#89CAFF" d="M93.986 119.111h1.861v22.333h-1.861z"/>
            <use fill="#51D881" xlink:href="#j"/>
            <rect width="12.889" height="21.264" x="12.167" y="110.806" stroke="#606E81" stroke-width="2" rx="5"/>
            <path fill="#36BC66" d="M18.611 111.667h2.792a2.795 2.795 0 0 1 2.792 2.8v13.942c0 1.546-1.253 2.8-2.792 2.8H18.61v-19.542z"/>
            <rect width="168.431" height="3.722" y="143.306" fill="#EEE" rx="1.861"/>
        </g>
        <g fill-rule="nonzero">
            <use fill="#51D881" fill-rule="evenodd" xlink:href="#k"/>
            <path stroke="#606E81" stroke-width="2" d="M122 104.638v11.89l9.876-3.91L142 116.54v-13.817h.006v-1.912l-5.04 3.174-4.86-3.732-4.967 3.694-5.126-2.713v3.404H122z"/>
        </g>
        <g transform="rotate(22 -46.4 363.558)">
            <g fill-rule="nonzero">
                <use fill="#51D881" fill-rule="evenodd" xlink:href="#l"/>
                <path stroke="#606E81" stroke-width="2" d="M30.014 46.917H29V33.5H9v13.169H8v-1h1.014v1.608h-1l.495-.869 5.258 3 5.157-3.512 5.327 3.508 5.246-3.161-.483.856v-1.182h1v1z"/>
            </g>
            <circle cx="18.896" cy="19.097" r="18.611" fill="#51D881" stroke="#606E81" stroke-width="2"/>
            <path stroke="#FFF" stroke-linecap="round" stroke-linejoin="round" stroke-width="2" d="M12 19.694l4.935 4.935 10.694-10.694"/>
        </g>
    </g>
</svg>
