<svg xmlns="http://www.w3.org/2000/svg" xmlns:xlink="http://www.w3.org/1999/xlink" width="250" height="250" viewBox="0 0 250 250">
    <defs>
        <rect id="a" width="77" height="47" x="77" y="146" rx="4"/>
        <rect id="b" width="77" height="47" x="67" y="159" rx="4"/>
        <path id="c" d="M160 193h-2c0-1.302-.895-2.357-2-2.357s-2 1.055-2 2.357h-2c0-1.302-.895-2.357-2-2.357s-2 1.055-2 2.357h-2c0-1.302-.895-2.357-2-2.357s-2 1.055-2 2.357h-2c0-1.302-.895-2.357-2-2.357s-2 1.055-2 2.357h-2c0-1.302-.895-2.357-2-2.357s-2 1.055-2 2.357h-2v-66h2c0 1.302.895 2.357 2 2.357s2-1.055 2-2.357h2c0 1.302.895 2.357 2 2.357s2-1.055 2-2.357h2c0 1.302.895 2.357 2 2.357s2-1.055 2-2.357h2c0 1.302.895 2.357 2 2.357s2-1.055 2-2.357h2c0 1.302.895 2.357 2 2.357s2-1.055 2-2.357h2c0 1.302.895 2.357 2 2.357s2-1.055 2-2.357h2v66h-2c0-1.302-.895-2.357-2-2.357s-2 1.055-2 2.357z"/>
    </defs>
    <g fill="none" fill-rule="evenodd">
        <path fill="#C5E5FF" d="M69 160.002c0-1.106.888-2.002 2-2.002h2v43h-2c-1.105 0-2-.898-2-2.002v-38.996z" opacity=".2"/>
        <use fill="#FFD783" xlink:href="#a"/>
        <rect width="75" height="45" x="78" y="147" stroke="#606E81" stroke-width="2" rx="4"/>
        <path fill="#FFBF3A" d="M79 155h49v4H79z"/>
        <path fill="#FFF" d="M79 150.002c0-1.106.888-2.002 2-2.002h2v43h-2c-1.105 0-2-.898-2-2.002v-38.996z" opacity=".2"/>
        <g transform="translate(114 159)">
            <rect width="73" height="43" x="6" fill="#FAFAFA" rx="4"/>
            <path fill="#E0E0E0" d="M6 7h73v12H6z"/>
            <rect width="22" height="3" y="15" fill="#89CAFF" rx="1.5"/>
            <path fill="#EEE" d="M15 2.002C15 .896 15.888 0 17 0h2v43h-2c-1.105 0-2-.898-2-2.002V2.002z" opacity=".2"/>
            <rect width="22" height="3" y="22" fill="#89CAFF" rx="1.5"/>
            <rect width="10" height="10" x="61" y="26" fill="#EEE" rx="5"/>
        </g>
        <rect width="181" height="4" x="34" y="206" fill="#EEE" rx="2"/>
        <g transform="matrix(-1 0 0 1 140 44)">
            <path fill="#89CAFF" d="M23.5 26.5v-2.003A1.5 1.5 0 0 1 25 23c.834 0 1.5.67 1.5 1.497V26.5h2.003A1.5 1.5 0 0 1 30 28c0 .834-.67 1.5-1.497 1.5H26.5v2.003A1.5 1.5 0 0 1 25 33c-.834 0-1.5-.67-1.5-1.497V29.5h-2.003A1.5 1.5 0 0 1 20 28c0-.834.67-1.5 1.497-1.5H23.5z"/>
            <path fill="#51D881" d="M2.1 2.1V.898C2.1.394 2.503 0 3 0c.5 0 .9.402.9.898V2.1h1.202c.504 0 .898.403.898.9 0 .5-.402.9-.898.9H3.9v1.202A.894.894 0 0 1 3 6c-.5 0-.9-.402-.9-.898V3.9H.898A.894.894 0 0 1 0 3c0-.5.402-.9.898-.9H2.1z"/>
            <circle cx="12.5" cy="51.5" r="2.5" stroke="#EDEDED" stroke-width="2"/>
        </g>
        <circle cx="152.5" cy="73.5" r="1.5" stroke="#C2E2FC" stroke-width="2"/>
        <path fill="#FFDEDE" d="M82.45 62.45v-1.402a1.05 1.05 0 0 1 2.1 0v1.402h1.402a1.05 1.05 0 0 1 0 2.1H84.55v1.402a1.05 1.05 0 0 1-2.1 0V64.55h-1.402a1.05 1.05 0 0 1 0-2.1h1.402z"/>
        <path fill="#FFD783" d="M96.1 100.1v-1.202c0-.504.403-.898.9-.898.5 0 .9.402.9.898v1.202h1.202c.504 0 .898.403.898.9 0 .5-.402.9-.898.9H97.9v1.202a.894.894 0 0 1-.9.898c-.5 0-.9-.402-.9-.898V101.9h-1.202A.894.894 0 0 1 94 101c0-.5.402-.9.898-.9H96.1z"/>
        <use fill="#67BAFF" xlink:href="#b"/>
        <rect width="75" height="45" x="68" y="160" stroke="#606E81" stroke-width="2" rx="4"/>
        <path fill="#367EBA" d="M69 168h73v12H69z"/>
        <rect width="22" height="3" x="77" y="187" fill="#89CAFF" rx="1.5"/>
        <rect width="22" height="3" x="77" y="194" fill="#89CAFF" rx="1.5"/>
        <rect width="10" height="10" x="124" y="187" fill="#FFD783" rx="5"/>
        <path fill="#4190D2" d="M69 168h73v12H69z"/>
        <path fill="#C5E5FF" d="M69 163.002c0-1.106.888-2.002 2-2.002h2v43h-2c-1.105 0-2-.898-2-2.002v-38.996z" opacity=".2"/>
        <rect width="22" height="3" x="77" y="187" fill="#89CAFF" rx="1.5"/>
        <rect width="22" height="3" x="77" y="194" fill="#89CAFF" rx="1.5"/>
        <rect width="10" height="10" x="124" y="187" fill="#FFD783" rx="5"/>
        <use fill="#FAFAFA" xlink:href="#c"/>
        <path stroke="#606E81" stroke-width="2" d="M159.135 192c.375-1.35 1.491-2.357 2.865-2.357s2.49 1.007 2.865 2.357H165v-64h-.135c-.375 1.35-1.491 2.357-2.865 2.357s-2.49-1.007-2.865-2.357h-.27c-.375 1.35-1.491 2.357-2.865 2.357s-2.49-1.007-2.865-2.357h-.27c-.375 1.35-1.491 2.357-2.865 2.357s-2.49-1.007-2.865-2.357h-.27c-.375 1.35-1.491 2.357-2.865 2.357s-2.49-1.007-2.865-2.357h-.27c-.375 1.35-1.491 2.357-2.865 2.357s-2.49-1.007-2.865-2.357h-.27c-.375 1.35-1.491 2.357-2.865 2.357s-2.49-1.007-2.865-2.357H129v64h.135c.375-1.35 1.491-2.357 2.865-2.357s2.49 1.007 2.865 2.357h.27c.375-1.35 1.491-2.357 2.865-2.357s2.49 1.007 2.865 2.357h.27c.375-1.35 1.491-2.357 2.865-2.357s2.49 1.007 2.865 2.357h.27c.375-1.35 1.491-2.357 2.865-2.357s2.49 1.007 2.865 2.357h.27c.375-1.35 1.491-2.357 2.865-2.357s2.49 1.007 2.865 2.357h.27z"/>
        <rect width="22" height="2" x="136" y="166" fill="#D3D3D3" rx="1"/>
        <rect width="22" height="2" x="136" y="172" fill="#D3D3D3" rx="1"/>
        <rect width="9" height="2" x="136" y="180" fill="#D3D3D3" rx="1"/>
        <text fill="#FF9292" font-family="NunitoSans-SemiBold, Nunito Sans" font-size="18" font-weight="500" letter-spacing="7.5">
            <tspan x="141" y="154">S</tspan>
        </text>
        <path fill="#FF9292" d="M146 138h2v20h-2z"/>
        <rect width="2" height="52" x="132" y="134" fill="#FFF" rx="1"/>
        <circle cx="172" cy="123" r="20" fill="#51D881" stroke="#606E81" stroke-width="2"/>
        <path stroke="#FFF" stroke-linecap="round" stroke-linejoin="round" stroke-width="2" d="M164.728 123.845l5.304 5.303 11.492-11.493"/>
    </g>
</svg>
