<svg xmlns="http://www.w3.org/2000/svg" width="24" height="24" viewBox="0 0 24 24">
    <g fill="none" fill-rule="evenodd" stroke="#404852" stroke-width="1.3" opacity=".5">
        <path stroke-linecap="round" d="M17.886 15.4c.74 0 1.314.566 1.314 1.275 0 .704-.566 1.275-1.282 1.275H6.032a1.276 1.276 0 1 1-.005-2.55H6.45"/>
        <path d="M6.025 15.4v-4.222a5.498 5.498 0 0 1 5.497-5.492h.906a5.499 5.499 0 0 1 5.497 5.492V15.4"/>
        <path stroke-linecap="round" d="M9.85 18.375a2.125 2.125 0 1 0 4.25 0M12.904 5.648a1.275 1.275 0 1 0-1.797.061M6.45 15.4h3.4"/>
    </g>
</svg>
