<svg xmlns="http://www.w3.org/2000/svg" width="20" height="19" viewBox="0 0 20 19">
    <g fill="none" fill-rule="evenodd" stroke="#404852" stroke-width="1.3" opacity=".5">
        <path d="M7.79 18.141H4.336a.901.901 0 0 1-.903-.904V9.063H2.026c-.497 0-.603-.269-.23-.606l7.562-6.851a1.01 1.01 0 0 1 1.338.006l7.562 6.918c.37.338.267.612-.23.612H16.62v8.103a.903.903 0 0 1-.905.896h-3.36"/>
        <path stroke-linecap="round" d="M7.776 18.141v-4.493c0-.498.4-.901.9-.901h2.7c.497 0 .9.41.9.896v4.498"/>
    </g>
</svg>
