<svg xmlns="http://www.w3.org/2000/svg" xmlns:xlink="http://www.w3.org/1999/xlink" width="32" height="32" viewBox="0 0 32 32">
    <defs>
        <path id="b" d="M0 33h360v313.918H0z"/>
        <filter id="a" width="107.2%" height="108.3%" x="-3.6%" y="-3.5%" filterUnits="objectBoundingBox">
            <feOffset dy="2" in="SourceAlpha" result="shadowOffsetOuter1"/>
            <feGaussianBlur in="shadowOffsetOuter1" result="shadowBlurOuter1" stdDeviation="4"/>
            <feColorMatrix in="shadowBlurOuter1" values="0 0 0 0 0.237112041 0 0 0 0 0.423615544 0 0 0 0 0.610119048 0 0 0 0.0722939312 0"/>
        </filter>
    </defs>
    <g fill="none" fill-rule="evenodd">
        <g transform="translate(-44 -191)">
            <use fill="#000" filter="url(#a)" xlink:href="#b"/>
            <use fill="#FFF" xlink:href="#b"/>
        </g>
        <path d="M0 0h32v32H0z"/>
        <g stroke="#404852" transform="translate(4 2.5)">
            <path stroke-linecap="round" stroke-linejoin="round" d="M1.6 3.922l15.08.033v8.533a7.528 7.528 0 0 1-7.54 7.528 7.558 7.558 0 0 1-7.54-7.56V3.921z"/>
            <path d="M1.942 13.066l14.47-3.216"/>
            <path stroke-linecap="round" stroke-linejoin="round" d="M4.89 3.955h8.575v-1.34c0-.74-.603-1.34-1.34-1.34H6.23c-.74 0-1.34.595-1.34 1.34v1.34z"/>
            <circle cx="9.177" cy=".839" r="1"/>
            <path stroke-linecap="round" stroke-linejoin="round" d="M15.723 20.033H4.357a2.683 2.683 0 0 0-2.683 2.68v2.68h12.824"/>
            <circle cx="9.177" cy="22.712" r="1"/>
            <path stroke-linecap="round" stroke-linejoin="round" d="M16.68 7.17h3.216v5.894c0 .889-.714 1.61-1.608 1.61H16.68V7.17zM.585 3.5H2.28M16.127 3.5h1.695M21.99 23.5h1.695M13.984 23.5h1.694M14.498 23.86h8.575v1.609c0 .888-.716 1.608-1.612 1.608h-5.35c-.89 0-1.613-.714-1.613-1.608V23.86z"/>
            <path stroke-linecap="round" stroke-linejoin="round" d="M22.46 23.86c0-1.86-1.644-3.368-3.674-3.368-2.03 0-3.675 1.508-3.675 3.369h7.35z"/>
            <circle cx="18.786" cy="20.071" r="1"/>
        </g>
    </g>
</svg>
