<svg xmlns="http://www.w3.org/2000/svg" xmlns:xlink="http://www.w3.org/1999/xlink" width="32" height="32" viewBox="0 0 32 32">
    <defs>
        <path id="b" d="M0 33h360v313.918H0z"/>
        <filter id="a" width="107.2%" height="108.3%" x="-3.6%" y="-3.5%" filterUnits="objectBoundingBox">
            <feOffset dy="2" in="SourceAlpha" result="shadowOffsetOuter1"/>
            <feGaussianBlur in="shadowOffsetOuter1" result="shadowBlurOuter1" stdDeviation="4"/>
            <feColorMatrix in="shadowBlurOuter1" values="0 0 0 0 0.237112041 0 0 0 0 0.423615544 0 0 0 0 0.610119048 0 0 0 0.0722939312 0"/>
        </filter>
    </defs>
    <g fill="none" fill-rule="evenodd">
        <g transform="translate(-165 -191)">
            <use fill="#000" filter="url(#a)" xlink:href="#b"/>
            <use fill="#FFF" xlink:href="#b"/>
        </g>
        <path d="M0 0h32v32H0z"/>
        <g stroke="#404852" stroke-linecap="round" stroke-linejoin="round" transform="translate(1.898 2.967)">
            <path d="M14.57.05c-1.738 0-3.393.35-4.9.984C5.11 2.949 1.91 7.456 1.91 12.71h12.66V.051zM14.57 12.66L5.09 4.455"/>
            <path d="M14.57.05c-1.738 0-3.393.35-4.9.984C5.11 2.949 1.91 7.456 1.91 12.71h12.66V.051zM22.404 12.73v-1.282c0-.708.565-1.282 1.282-1.282h1.963"/>
            <path d="M13.866 22.558c.74 0 1.463-.055 2.165-.16m5.352-2.029c2.708-1.805 4.44-4.565 4.44-7.658H1.909c0 3.429 2.128 6.448 5.355 8.211M24.375 12.693h3.245M10.043 16.5h8.113M.708 12.7h3.245"/>
            <circle cx="9.968" cy="23.814" r="2.462"/>
            <circle cx="19.815" cy="23.814" r="2.462"/>
        </g>
    </g>
</svg>
