<svg xmlns="http://www.w3.org/2000/svg" xmlns:xlink="http://www.w3.org/1999/xlink" width="32" height="32" viewBox="0 0 32 32">
    <defs>
        <path id="b" d="M0 33h360v313.918H0z"/>
        <filter id="a" width="107.2%" height="108.3%" x="-3.6%" y="-3.5%" filterUnits="objectBoundingBox">
            <feOffset dy="2" in="SourceAlpha" result="shadowOffsetOuter1"/>
            <feGaussianBlur in="shadowOffsetOuter1" result="shadowBlurOuter1" stdDeviation="4"/>
            <feColorMatrix in="shadowBlurOuter1" values="0 0 0 0 0.237112041 0 0 0 0 0.423615544 0 0 0 0 0.610119048 0 0 0 0.0722939312 0"/>
        </filter>
        <path id="c" d="M11.022 6.546c.072-.108.187-.11.26 0l.8 1.2c.072.108.017.195-.113.195h-1.634c-.134 0-.186-.085-.113-.195l.8-1.2z"/>
    </defs>
    <g fill="none" fill-rule="evenodd">
        <g transform="translate(-285 -191)">
            <use fill="#000" filter="url(#a)" xlink:href="#b"/>
            <use fill="#FFF" xlink:href="#b"/>
        </g>
        <path fill="#FFF" d="M0 0h32v32H0z"/>
        <g transform="translate(2 6)">
            <g transform="translate(.77)">
                <path stroke="#404852" d="M0 2.5h21.903"/>
                <path stroke="#404852" stroke-linecap="round" d="M3.995 11.962h12.13"/>
                <path stroke="#404852" stroke-linecap="round" stroke-linejoin="round" d="M18.43 14.4l-17.61.044a.791.791 0 0 1-.792-.79L0 1.16C0 .52.521 0 1.157 0H20.8c.64 0 1.158.516 1.158 1.156v8.84"/>
                <path stroke="#404852" stroke-linecap="round" d="M10.557 14.735v2.889M6.8 18.5h7.513"/>
                <circle cx="10.979" cy="7.223" r="2.6" stroke="#404852" stroke-linecap="round" stroke-linejoin="round"/>
                <g transform="rotate(90 11.153 7.19)">
                    <use fill="#404852" xlink:href="#c"/>
                    <path stroke="#404852" d="M11.278 7.441l.389.583c-.159-.238.047-.583.302-.583h-.69zm-.252 0h-.69c.252 0 .458.35.302.583l.388-.583zm.126-.189l.286-.429c-.125.188-.446.19-.572 0l.286.43zm0 0l.126.19h-.252l.126-.19z"/>
                </g>
            </g>
            <rect width="7.478" height="8.652" x="19.638" y="11.702" stroke="#404852" stroke-linecap="round" stroke-linejoin="round" rx="1.6"/>
            <circle cx="23.377" cy="16.919" r="1.558" stroke="#404852" stroke-linecap="round" stroke-linejoin="round"/>
            <path stroke="#404852" stroke-linecap="round" stroke-linejoin="round" d="M22.442 13.5h1.87"/>
        </g>
    </g>
</svg>
