<svg xmlns="http://www.w3.org/2000/svg" width="24" height="24" viewBox="0 0 24 24">
    <g fill="none" fill-rule="evenodd" stroke="#404852" stroke-width="1.3" transform="translate(2 4.5)">
        <path stroke-linecap="round" d="M2.609.866A.87.87 0 0 1 3.47 0h15.667c.476 0 .862.391.862.876v10.422a.877.877 0 0 1-.873.876"/>
        <path d="M0 3.605c0-.55.447-.996.997-.996h15.397c.55 0 .997.447.997.996v10.181c0 .55-.447.997-.997.997H.997A.998.998 0 0 1 0 13.786V3.605z"/>
        <circle cx="8.696" cy="8.696" r="2.254"/>
    </g>
</svg>
