<svg xmlns="http://www.w3.org/2000/svg" xmlns:xlink="http://www.w3.org/1999/xlink" width="24" height="24" viewBox="0 0 24 24">
    <defs>
        <path id="b" d="M0 441h360v314.56H0z"/>
        <filter id="a" width="105.6%" height="106.4%" x="-2.8%" y="-2.5%" filterUnits="objectBoundingBox">
            <feOffset dy="2" in="SourceAlpha" result="shadowOffsetOuter1"/>
            <feGaussianBlur in="shadowOffsetOuter1" result="shadowBlurOuter1" stdDeviation="3"/>
            <feColorMatrix in="shadowBlurOuter1" values="0 0 0 0 0.917134587 0 0 0 0 0.919106197 0 0 0 0 0.921077806 0 0 0 1 0"/>
        </filter>
    </defs>
    <g fill="none" fill-rule="evenodd">
        <g transform="translate(-17 -648)">
            <use fill="#000" filter="url(#a)" xlink:href="#b"/>
            <use fill="#FFF" xlink:href="#b"/>
        </g>
        <path stroke="#404852" stroke-width="1.3" d="M12 16l-3.818 2.007c-.488.257-.808.019-.715-.52l.729-4.25-3.089-3.012c-.395-.385-.267-.762.273-.84l4.269-.621 1.909-3.868c.244-.495.642-.49.884 0l1.91 3.868 4.268.62c.546.08.664.46.273.841l-3.089 3.011.73 4.251c.093.544-.233.774-.716.52L12 16z"/>
    </g>
</svg>
