<svg xmlns="http://www.w3.org/2000/svg" width="24" height="24" viewBox="0 0 24 24">
    <g fill="#404852" fill-rule="nonzero">
        <path d="M22 12a2.862 2.862 0 0 0-2.362-2.814l-.248-.597a2.861 2.861 0 0 0-.32-3.66c-.96-.961-2.57-1.086-3.66-.32l-.596-.247A2.862 2.862 0 0 0 12 2a2.862 2.862 0 0 0-2.814 2.362l-.597.247a2.862 2.862 0 0 0-3.66.32 2.837 2.837 0 0 0-.837 2.021c0 .595.18 1.163.517 1.64l-.247.596A2.862 2.862 0 0 0 2 12a2.862 2.862 0 0 0 2.362 2.814l.247.596a2.862 2.862 0 0 0 .32 3.66c.96.961 2.572 1.087 3.661.32l.596.248A2.862 2.862 0 0 0 12.001 22a2.86 2.86 0 0 0 2.813-2.362l.597-.248a2.86 2.86 0 0 0 3.66-.32c.54-.54.838-1.256.838-2.02 0-.595-.182-1.163-.518-1.64l.248-.596A2.86 2.86 0 0 0 22 12zm-2.857 1.43a.714.714 0 0 0-.66.44l-.577 1.392a.714.714 0 0 0 .155.779c.27.27.418.628.418 1.01s-.148.74-.418 1.01a1.432 1.432 0 0 1-2.021 0 .714.714 0 0 0-.779-.155l-1.392.578a.714.714 0 0 0-.44.66A1.43 1.43 0 0 1 12 20.572a1.43 1.43 0 0 1-1.429-1.428.715.715 0 0 0-.44-.66l-1.393-.578a.714.714 0 0 0-.779.155c-.54.54-1.48.54-2.02 0a1.43 1.43 0 0 1 0-2.02.714.714 0 0 0 .155-.779l-.577-1.391a.714.714 0 0 0-.66-.441 1.43 1.43 0 0 1 0-2.858c.289 0 .55-.174.66-.44l.577-1.393a.714.714 0 0 0-.155-.779 1.419 1.419 0 0 1-.418-1.01 1.43 1.43 0 0 1 2.44-1.01.717.717 0 0 0 .778.154l1.392-.577a.715.715 0 0 0 .44-.66 1.43 1.43 0 0 1 2.857 0c0 .289.175.55.441.66l1.393.577c.267.11.574.05.779-.155.54-.54 1.48-.54 2.02 0a1.432 1.432 0 0 1 0 2.021.714.714 0 0 0-.155.779l.577 1.392c.11.266.371.44.66.44.788 0 1.428.641 1.428 1.429 0 .789-.64 1.43-1.428 1.43z"/>
        <path d="M12 8.429A3.575 3.575 0 0 0 8.429 12 3.575 3.575 0 0 0 12 15.571a.714.714 0 1 0 0-1.428A2.145 2.145 0 0 1 9.857 12c0-1.181.962-2.143 2.143-2.143a2.145 2.145 0 0 1 1.8 3.309.714.714 0 1 0 1.198.777A3.575 3.575 0 0 0 12 8.429z"/>
    </g>
</svg>
