<svg xmlns="http://www.w3.org/2000/svg" xmlns:xlink="http://www.w3.org/1999/xlink" width="24" height="24" viewBox="0 0 24 24">
    <defs>
        <path id="a" d="M9.555 19.182h10.439c1.11 0 2.006-.896 2.006-2V7.818c0-1.103-.898-2-2.006-2H7.779c-1.11 0-2.006.895-2.006 2v8.534h-.005l.005.464v.364c0 .048.001.095.005.142l.027 2.782c.01 1.06.696 1.405 1.547.755l2.203-1.678z"/>
        <path id="b" d="M5.736 15.364h10.44c1.11 0 2.006-.896 2.006-2.001V4.001c0-1.103-.898-2.001-2.006-2.001H3.96c-1.11 0-2.006.896-2.006 2v8.535H1.95l.005.464v.364c0 .048.001.095.005.142l.027 2.782c.01 1.06.695 1.405 1.547.755l2.202-1.678z"/>
    </defs>
    <g fill="none" fill-rule="evenodd">
        <g transform="matrix(-1 0 0 1 27.768 0)">
            <use fill="#FFF" xlink:href="#a"/>
            <path stroke="#404852" stroke-width="1.3" d="M9.335 18.532l-2.377 1.812c-.423.322-.498.285-.503-.245l-.027-2.783a2.436 2.436 0 0 1-.005-.135v-.364l-.005-.47-.65.006.005.65.65-.004v-9.18c0-.747.605-1.35 1.356-1.35h12.215c.749 0 1.356.605 1.356 1.35v9.362c0 .747-.605 1.35-1.356 1.35H9.335z"/>
        </g>
        <g>
            <use fill="#FFF" xlink:href="#b"/>
            <path stroke="#404852" stroke-width="1.3" d="M5.517 14.714L3.14 16.525c-.423.323-.498.286-.503-.244l-.028-2.783a2.436 2.436 0 0 1-.004-.135v-.364l-.005-.47-.65.006.005.65.65-.005V4c0-.746.605-1.35 1.356-1.35h12.215c.748 0 1.356.606 1.356 1.35v9.363c0 .747-.605 1.35-1.356 1.35H5.516z"/>
        </g>
        <path stroke="#404852" stroke-linecap="round" stroke-width="1.3" d="M7.045 7.133h6.096M7.045 9.996h6.096"/>
    </g>
</svg>
