<svg xmlns="http://www.w3.org/2000/svg" width="24" height="24" viewBox="0 0 24 24">
    <g fill="none" fill-rule="evenodd" stroke="#404852" stroke-width="1.3">
        <path stroke-linecap="round" d="M18.631 16c.87 0 1.545.666 1.545 1.5 0 .828-.666 1.5-1.508 1.5H4.685a1.5 1.5 0 0 1-1.509-1.5c0-.828.68-1.5 1.503-1.5h.497"/>
        <path d="M4.676 16v-4.967c0-3.569 2.901-6.461 6.468-6.461h1.065a6.47 6.47 0 0 1 6.467 6.461V16"/>
        <path stroke-linecap="round" d="M9.176 19.5a2.5 2.5 0 1 0 5 0M12.77 4.527a1.5 1.5 0 1 0-2.114.072M5.176 16h4"/>
    </g>
</svg>
