<svg xmlns="http://www.w3.org/2000/svg" width="24" height="24" viewBox="0 0 24 24">
    <path fill="none" fill-rule="evenodd" stroke="#404852" stroke-width="1.3" d="M12 16.5l-4.405 2.316c-.489.257-.81.022-.716-.52l.672-3.92c.094-.544-.152-1.299-.547-1.684L4.157 9.917c-.396-.386-.272-.763.273-.842l3.935-.572c.547-.08 1.189-.546 1.433-1.04l1.76-3.566c.244-.495.64-.494.885 0l1.76 3.565c.244.496.887.962 1.432 1.041l3.935.572c.546.08.668.457.273.842l-2.847 2.775c-.396.386-.64 1.141-.547 1.685l.672 3.918c.093.545-.229.777-.716.52L12 16.5z"/>
</svg>
