<svg xmlns="http://www.w3.org/2000/svg" width="24" height="25" viewBox="0 0 24 25">
    <g fill="none" fill-rule="evenodd" stroke="#404852" stroke-width="1.3">
        <path d="M3 8V7c0-.548.433-1.08.984-1.19l13.032-2.606c.543-.109.984.26.984.8v3.098"/>
        <path d="M3 8.015a1 1 0 0 1 .993-1.008h16.014c.548 0 .993.441.993.995v11.711a.996.996 0 0 1-.993.999H3.993c-.548 0-.993-.456-.993-1.008V8.014z"/>
        <g stroke-linecap="round" stroke-linejoin="round">
            <path d="M8.35 13.634h5.3M12.32 16.373l2.829-2.828-2.65-2.65"/>
        </g>
    </g>
</svg>
